<?xml version="1.0" encoding="utf-8"?>
<!-- Generator: Adobe Illustrator 21.0.0, SVG Export Plug-In . SVG Version: 6.00 Build 0)  -->
<svg version="1.1" id="Layer_1" xmlns="http://www.w3.org/2000/svg" xmlns:xlink="http://www.w3.org/1999/xlink" x="0px" y="0px"
	 viewBox="0 0 2272 1872" style="enable-background:new 0 0 2272 1872;" xml:space="preserve">
<style type="text/css">
	.st0{clip-path:url(#SVGID_2_);fill:#70D5E5;}
	.st1{clip-path:url(#SVGID_2_);fill:#52B1BA;}
	.st2{clip-path:url(#SVGID_2_);}
	.st3{fill:#52B1BA;}
	.st4{fill:#E8E8E8;}
	.st5{fill:#FFFFFF;}
	.st6{fill:#606060;}
	.st7{fill:#4C4C4C;}
	.st8{fill:#C1C1C1;}
	.st9{fill:#F7A75E;}
	.st10{fill:#CE884E;}
	.st11{fill:#F9C582;}
	.st12{fill:#604937;}
	.st13{fill:#E2775A;}
	.st14{fill:#C6644E;}
	.st15{fill:#DBDBDB;}
	.st16{fill:#B7B7B7;}
	.st17{fill:none;}
	.st18{fill:#333333;}
	.st19{fill:#282828;}
	.st20{fill:#515150;}
	.st21{fill:#664D66;}
	.st22{fill:#7C627A;}
	.st23{fill:#70D5E5;}
</style>
<g id="Layer_1_1_">
</g>
<g id="Layer_2">
</g>
<g>
	<defs>
		<rect id="SVGID_1_" y="0.3" width="2272" height="1871.7"/>
	</defs>
	<clipPath id="SVGID_2_">
		<use xlink:href="#SVGID_1_"  style="overflow:visible;"/>
	</clipPath>
	<rect y="0.3" class="st0" width="2272" height="1871.7"/>
	<path class="st1" d="M1137,916.9c-434.2,0-786.3,352-786.3,786.3c0,58,6.3,114.4,18.2,168.8h1536.2
		c11.9-54.4,18.2-110.9,18.2-168.8C1923.3,1268.9,1571.3,916.9,1137,916.9z"/>
	<g class="st2">
		<rect x="2102.1" y="602.5" class="st3" width="169.9" height="1268.5"/>
		<path class="st3" d="M2194.8,191.7c-19.5,234.5-306.2,254.1-262.9,388.7c43.3,134.6,262.9,138,262.9,138s219.7-3.4,262.9-138
			C2501,445.8,2214.3,426.2,2194.8,191.7z"/>
		<g>
			<circle class="st3" cx="2194.8" cy="203.3" r="31.5"/>
			<circle class="st3" cx="2194.8" cy="140.3" r="31.5"/>
			<circle class="st3" cx="2194.8" cy="77.3" r="31.5"/>
		</g>
	</g>
	<g class="st2">
		<rect x="3.5" y="602.5" class="st3" width="169.9" height="1268.5"/>
		<path class="st3" d="M96.2,191.7C76.7,426.2-210,445.8-166.7,580.4c43.3,134.6,262.9,138,262.9,138s219.7-3.4,262.9-138
			C402.4,445.8,115.8,426.2,96.2,191.7z"/>
		<g>
			<circle class="st3" cx="96.2" cy="203.3" r="31.5"/>
			<circle class="st3" cx="96.2" cy="140.3" r="31.5"/>
			<circle class="st3" cx="96.2" cy="77.3" r="31.5"/>
		</g>
	</g>
	<g class="st2">
		<g>
			<g>
				<path class="st4" d="M974.3,1401.3c-10.4-3.7-22-0.4-28.9,8.2l-45,56.1c-6.3,7.8-7.5,18.5-3.2,27.5c4.3,9,13.4,14.8,23.4,14.8
					h45c14.4,0,26-11.6,26-26v-56.1C991.7,1414.8,984.8,1404.9,974.3,1401.3z"/>
				<path class="st4" d="M1380.7,1412.9c-6.9-8.6-18.5-11.8-28.9-8.1c-10.4,3.7-17.3,13.5-17.3,24.5v52.6c0,14.4,11.6,26,26,26h42.6
					c10,0,19.2-5.8,23.5-14.8s3-19.8-3.3-27.6L1380.7,1412.9z"/>
				<path class="st5" d="M1515.8,1433.7C1515.8,1433.7,1515.8,1433.7,1515.8,1433.7l-133.5-164.8c-13.7-16.9-34-26.5-55.4-26.5
					c-0.2,0-0.5,0-0.7,0l-45.9-17.2l-1.4-21.8c-0.5-7.9-3.2-15.6-7.7-22.1c-0.6-0.9-1.3-1.7-1.9-2.6c-0.1-0.1-0.1-0.1-0.2-0.2
					c-0.1-0.2-0.3-0.3-0.4-0.5l0.2-0.1c1-0.6,2-1.2,2.9-1.8l0.9-0.5c0.9-0.6,1.9-1.2,2.8-1.8l0.2-0.1c0.3-0.2,0.5-0.3,0.7-0.5
					c0.9-0.6,1.8-1.2,2.7-1.9l1-0.7c0.9-0.6,1.7-1.2,2.6-1.9l1-0.7c0.8-0.6,1.7-1.2,2.5-1.9l1.1-0.9c0.8-0.6,1.6-1.2,2.4-1.9
					l1.1-0.9c0.8-0.6,1.5-1.3,2.3-1.9l1.2-1c0.7-0.6,1.5-1.3,2.2-1.9l1.2-1c0.7-0.6,1.4-1.3,2.1-1.9l0.2-0.2
					c0.3-0.3,0.7-0.6,0.9-0.9c0.7-0.6,1.4-1.3,2.1-2c0.4-0.4,0.8-0.8,1.2-1.1c0.7-0.7,1.3-1.3,2-2l0.1-0.1c0.4-0.4,0.7-0.7,1-1.1
					c0.6-0.7,1.3-1.3,1.9-2c0.4-0.4,0.8-0.8,1.2-1.3c0.6-0.7,1.2-1.3,1.8-2c0.4-0.4,0.8-0.9,1.2-1.3c0.6-0.7,1.2-1.4,1.7-2
					c0.4-0.5,0.8-0.9,1.2-1.4c0.6-0.7,1.1-1.3,1.7-2c0.4-0.5,0.8-1,1.2-1.5c0.5-0.7,1.1-1.3,1.6-2c0.4-0.5,0.8-1,1.1-1.5
					c0.5-0.7,1-1.4,1.5-2c0.4-0.5,0.8-1.1,1.2-1.6c0.5-0.7,1-1.4,1.5-2c0.4-0.5,0.7-1.1,1.1-1.6c0.5-0.7,0.9-1.4,1.4-2.1
					c0.4-0.6,0.8-1.1,1.1-1.7c0.4-0.7,0.9-1.4,1.3-2.1c0.4-0.6,0.7-1.2,1.1-1.7c0.4-0.7,0.9-1.4,1.3-2.1c0.3-0.6,0.7-1.2,1-1.7
					c0.4-0.7,0.8-1.4,1.2-2.1c0.3-0.6,0.7-1.2,1-1.8c0.4-0.7,0.8-1.4,1.2-2.1c0.3-0.6,0.7-1.2,1-1.9c0.4-0.7,0.7-1.4,1.1-2.1
					c0.3-0.6,0.6-1.2,0.9-1.8l0.2-0.4c0.3-0.6,0.6-1.3,0.9-1.9c0.3-0.6,0.6-1.3,0.9-1.9c0.3-0.7,0.7-1.4,1-2.1
					c0.3-0.6,0.5-1.1,0.7-1.7l0.2-0.6c0.3-0.6,0.5-1.3,0.8-1.9c0.3-0.7,0.5-1.3,0.8-2l0-0.1c0.3-0.7,0.6-1.4,0.9-2.2
					c0.2-0.6,0.4-1.2,0.7-1.7l0.3-0.7c0.2-0.6,0.5-1.2,0.7-1.8c0.2-0.7,0.5-1.3,0.7-2l0.1-0.4c0.2-0.6,0.4-1.2,0.7-1.9
					c0.2-0.6,0.4-1.2,0.6-1.8l0.2-0.7c0.2-0.6,0.4-1.2,0.6-1.9c0.2-0.7,0.4-1.3,0.6-2l0.2-0.8c0.2-0.5,0.3-1.1,0.5-1.7
					c0.2-0.6,0.3-1.2,0.5-1.8l0.2-0.9c0.1-0.6,0.3-1.1,0.4-1.6c0.2-0.6,0.3-1.2,0.5-1.9l0.2-0.9c0.1-0.6,0.3-1.1,0.4-1.7
					c0.1-0.6,0.3-1.3,0.4-1.9l0.2-1c0.1-0.5,0.2-1,0.3-1.5c12.7-6.6,24-16.1,32.6-27.6c12.5-16.6,19.1-36.4,19.1-57.3
					c0-31.2-15-59.6-39.2-77.2c3.8-4.8,5.9-10.9,5.6-17.4c0-0.8-0.1-1.6-0.1-2.3c0.1-1.1,0.1-2.3,0.1-3.4v-6.5
					c0-55-21.6-106.6-60.8-145.2c-9.2-9.3-19.4-17.7-30.3-24.8c-2.7-1.8-5.6-3.5-8.5-5.2c-15.3-9.2-31.8-16.2-48.9-21.1
					c-4-2.2-8.6-3.4-13.5-3.3c-13.7-2.9-27.9-4.3-42-4.3c-1.8,0-3.7,0-5.9,0.1c-0.4,0-0.8,0-1.2,0l-0.5,0c-1.4,0.1-2.8,0.1-4.2,0.2
					c-0.6,0-1.2,0.1-1.8,0.1c-1.4,0.1-2.9,0.2-4.3,0.3l-0.2,0c-0.4,0-0.9,0.1-1.3,0.1c-1.7,0.2-3.4,0.3-5.2,0.6l0.1,0l-0.6,0.1
					c-6,0.7-12,1.8-18,3l-0.1,0c-2,0.4-3.9,0.9-5.9,1.4c-43.5,10.7-82.9,36.1-110.9,71.3c-28.9,36.4-44.1,80.2-44.1,126.7v6.5
					c0,7.9,2.2,15.3,6.1,21.5c-25.5,17.4-41.6,46.6-41.6,78.9c0,21.8,7.6,43.2,21.3,60.1c9.7,11.9,22.1,21.3,36,27.4
					c10.7,49.1,40.7,91.7,83.2,118.6c-0.9,0.9-1.8,1.9-2.6,2.9c0,0-0.1,0.1-0.1,0.1c-0.7,0.9-1.4,1.7-2,2.7
					c-4.5,6.5-7.2,14.1-7.7,22l-1.2,19.5l-66.6,19.6c-19.6,1.4-37.7,10.9-50.1,26.4l-132.5,164.8c-24.7,30.7-29.7,72.2-13.2,108.1
					c1,2.2,2.1,4.4,3.3,6.5c4.6,8.5,10.4,16.2,17.1,23c3.3,3.3,6.9,6.5,10.7,9.3c5.6,4.3,11.7,7.9,18.1,10.9c1.1,0.5,2.1,1,3.2,1.4
					c2.2,0.9,4.4,1.8,6.6,2.5c1.1,0.4,2.3,0.7,3.4,1.1c4.6,1.4,9.3,2.4,14,3.1c1.2,0.2,2.4,0.3,3.6,0.5c3.6,0.4,7.3,0.6,10.9,0.6
					h53.4v176c0,7.1,2.8,13.5,7.5,18.2v77.1c0,14.4,11.6,26,26,26h379.2c14.4,0,26-11.6,26-26v-76.4c5-4.7,8.2-11.5,8.2-18.9v-176
					h51.2c6.1,0,12.1-0.5,18.1-1.6c5.9-1.1,11.7-2.7,17.2-4.7c4.4-1.7,8.8-3.6,12.9-5.9c1-0.6,2.1-1.1,3.1-1.8c3-1.8,6-3.8,8.8-5.9
					c2.8-2.1,5.6-4.4,8.2-6.8c9.7-9,17.5-19.8,23.1-32C1545.8,1505.9,1540.8,1464.5,1515.8,1433.7z"/>
			</g>
			<g>
				<rect x="973.2" y="1761.4" class="st6" width="379.2" height="110.6"/>
				<rect x="973.2" y="1761.4" class="st7" width="379.2" height="45"/>
				<g>
					<path class="st4" d="M1098.3,1238l-110.5,32.6c-13.1,3.9-22.1,15.9-22.1,29.5v476.5h394.8v-465.8c0-16.8-10.4-31.9-26.2-37.8
						l-109.5-41L1098.3,1238z"/>
					<path class="st8" d="M1111.5,1563.8v-11H965.7v60.3h96.5C1089.4,1613.1,1111.5,1591,1111.5,1563.8z"/>
					<path class="st8" d="M1214.7,1563.8v-11h145.8v60.3h-96.5C1236.7,1613.1,1214.7,1591,1214.7,1563.8z"/>
					<rect x="1151.7" y="1240.7" class="st5" width="9.3" height="535.9"/>
					<rect x="1100.3" y="1140.4" class="st9" width="138" height="109.1"/>
					<g>
						<g>
							<g>
								<circle class="st9" cx="1312.5" cy="969.5" r="69.5"/>
							</g>
							<g>
								<circle class="st9" cx="1026.5" cy="969.5" r="69.5"/>
							</g>
							<g>
								<circle class="st10" cx="1039.4" cy="969.5" r="52.6"/>
							</g>
							<g>
								<circle class="st10" cx="1303.4" cy="969.5" r="52.6"/>
							</g>
							<path class="st11" d="M1299.6,826.5h-255.2c-19.1,0-34.5,15.4-34.5,34.5v155.6c0,89.5,72.6,162.1,162.1,162.1h0
								c89.5,0,162.1-72.6,162.1-162.1V861C1334.1,841.9,1318.7,826.5,1299.6,826.5z"/>
							<g>
								<path class="st9" d="M1176.8,826.5v352.2c87.3-2.5,157.3-74.1,157.3-162V826.5H1176.8z"/>
							</g>
							<polygon class="st12" points="1312.5,874.1 1312.5,1002.6 1334.1,1016.6 1334.1,867.2 							"/>
							<polygon class="st12" points="1009.2,1009.8 1009.2,881.3 1030.9,867.2 1030.9,1016.6 							"/>
							<g>
								<g>
									<ellipse class="st12" cx="1090.5" cy="957.4" rx="25.9" ry="29.7"/>
								</g>
								<g>
									<circle class="st5" cx="1115.3" cy="957.4" r="15"/>
								</g>
							</g>
							<g>
								<g>
									<ellipse class="st12" cx="1250.7" cy="957.4" rx="25.9" ry="29.7"/>
								</g>
								<g>
									<circle class="st5" cx="1272.6" cy="957.4" r="15"/>
								</g>
							</g>
							<g>
								<g>
									<path class="st13" d="M1177.5,1051.6L1177.5,1051.6c-14.2,0-25.4-12.3-23.9-26.5l5.5-55.1c0.9-9.4,8.8-16.5,18.2-16.5l0,0
										c9.4,0,17.2,7.1,18.2,16.4l5.9,55C1203,1039.2,1191.8,1051.6,1177.5,1051.6z"/>
								</g>
								<g>
									<path class="st14" d="M1201.4,1025l-5.9-55c-1-9.2-8.7-16.3-18-16.3v98C1191.8,1051.6,1203,1039.2,1201.4,1025z"/>
								</g>
							</g>
							<g>
								<path class="st12" d="M1296.7,928.5c-4.1,0-7.4-3.3-7.4-7.4c0-12-16.3-22.2-35.6-22.2c-19.3,0-35.6,10.2-35.6,22.2
									c0,4.1-3.3,7.4-7.4,7.4s-7.4-3.3-7.4-7.4c0-10.4,5.6-20,15.8-27.1c9.3-6.4,21.6-10,34.6-10c13,0,25.3,3.5,34.6,10
									c10.2,7,15.8,16.6,15.8,27.1C1304.1,925.2,1300.8,928.5,1296.7,928.5z"/>
							</g>
							<g>
								<path class="st12" d="M1130.2,928.5c-4.1,0-7.4-3.3-7.4-7.4c0-12-16.3-22.2-35.6-22.2c-19.3,0-35.6,10.2-35.6,22.2
									c0,4.1-3.3,7.4-7.4,7.4s-7.4-3.3-7.4-7.4c0-10.4,5.6-20,15.8-27.1c9.3-6.4,21.6-10,34.6-10s25.3,3.5,34.6,10
									c10.2,7,15.8,16.6,15.8,27.1C1137.6,925.2,1134.3,928.5,1130.2,928.5z"/>
							</g>
							<g>
								<path class="st12" d="M1177.7,1112c-13,0-25.3-3.5-34.6-10c-10.2-7-15.8-16.6-15.8-27.1c0-4.1,3.3-7.4,7.4-7.4
									s7.4,3.3,7.4,7.4c0,12,16.3,22.2,35.6,22.2c19.3,0,35.6-10.2,35.6-22.2c0-4.1,3.3-7.4,7.4-7.4s7.4,3.3,7.4,7.4
									c0,10.4-5.6,20-15.8,27.1C1202.9,1108.4,1190.6,1112,1177.7,1112z"/>
							</g>
						</g>
						<g>
							<path class="st15" d="M1170.4,684.7L1170.4,684.7c-98.3,0-178,79.7-178,178v6.5c0,8.2,6.7,14.9,14.9,14.9h326.2
								c8.2,0,14.9-6.7,14.9-14.9v-6.5C1348.4,764.4,1268.7,684.7,1170.4,684.7z"/>
						</g>
						<g>
							<path class="st16" d="M1170.4,684.7L1170.4,684.7c-14.7,0-29.1,1.8-42.8,5.2c160.8,34.9,176.2,177.7,176.2,177.7H992.4v1.6
								c0,8.2,6.7,14.9,14.9,14.9h326.2c8.2,0,14.9-6.7,14.9-14.9v-6.5C1348.4,764.4,1268.7,684.7,1170.4,684.7z"/>
						</g>
						<g>
							<g>
								<g>
									<path class="st16" d="M1012.9,876.5l-7-0.3c2-41.4,11.2-76.9,27.4-105.7c13-23.2,30.5-42,52-56
										c36.6-23.8,71.6-25.3,73.1-25.4l0.2,7.1c-0.3,0-34.8,1.5-69.7,24.4c-20.5,13.4-37.1,31.4-49.5,53.6
										C1023.7,801.9,1014.9,836.3,1012.9,876.5z"/>
								</g>
								<g>
									<path class="st16" d="M1040.3,876.5l-7-0.3c2-41.4,11.2-76.9,27.4-105.7c13-23.2,30.5-42,52-56
										c36.6-23.8,71.6-25.3,73.1-25.4l0.2,7.1l-0.1-3.5l0.1,3.5c-0.3,0-34.8,1.5-69.7,24.4c-20.5,13.4-37.1,31.4-49.5,53.6
										C1051.2,801.9,1042.3,836.3,1040.3,876.5z"/>
								</g>
								<g>
									<path class="st16" d="M1067.8,876.5l-7-0.3c2-41.4,11.2-76.9,27.4-105.7c13-23.2,30.5-42,52-56
										c36.6-23.8,71.6-25.3,73.1-25.4l0.2,7.1l-0.1-3.5l0.1,3.5c-0.3,0-34.8,1.5-69.7,24.4c-20.5,13.4-37.1,31.4-49.5,53.6
										C1078.6,801.9,1069.7,836.3,1067.8,876.5z"/>
								</g>
								<g>
									<path class="st16" d="M1105.4,876.4l-7.1-0.2c1.4-41.2,7.6-76.6,18.6-105.3c8.8-23.2,20.8-42,35.5-56.1
										c25.3-24.2,49.8-25.7,50.8-25.8l0.4,7c-0.2,0-23.3,1.6-46.7,24.2c-13.8,13.4-25.1,31.4-33.5,53.5
										C1112.7,801.7,1106.7,836.2,1105.4,876.4z"/>
								</g>
							</g>
							<g>
								<path class="st16" d="M1156.5,876.3l-7.1-0.1c2-176.8,34.1-186.7,37.8-187.2l1,7c0,0,0.1,0,0.2,0
									C1188.2,696.1,1158.4,706.8,1156.5,876.3z"/>
							</g>
						</g>
						<g>
							<g>
								<g>
									<path class="st16" d="M1341.3,876.5c-1.9-40.1-10.8-74.6-26.4-102.4c-12.4-22.1-29-40.2-49.5-53.6
										c-34.9-22.9-69.4-24.4-69.7-24.4l0.2-7.1c1.5,0.1,36.5,1.5,73.1,25.4c21.5,14,39,32.8,52,56
										c16.2,28.8,25.4,64.4,27.4,105.7L1341.3,876.5z"/>
								</g>
								<g>
									<path class="st16" d="M1313.9,876.5c-1.9-40.1-10.8-74.6-26.4-102.4c-12.4-22.1-29-40.2-49.5-53.6
										c-34.9-22.9-69.4-24.4-69.7-24.4l0.2-7.1c1.5,0.1,36.5,1.5,73.1,25.4c21.5,14,39,32.8,52,56
										c16.2,28.8,25.4,64.4,27.4,105.7L1313.9,876.5z"/>
								</g>
								<g>
									<path class="st16" d="M1286.5,876.5c-1.9-40.1-10.8-74.6-26.4-102.4c-12.4-22.1-29-40.2-49.5-53.6
										c-34.9-22.9-69.4-24.4-69.7-24.4l0.2-7.1c1.5,0.1,36.5,1.5,73.1,25.4c21.5,14,39,32.8,52,56
										c16.2,28.8,25.4,64.4,27.4,105.7L1286.5,876.5z"/>
								</g>
								<g>
									<path class="st16" d="M1248.9,876.4c-1.3-40.4-7.4-75.1-18.1-103c-8.5-22.2-19.8-40.2-33.8-53.5
										c-23.4-22.4-46-23.8-46.3-23.8l0.4-7c1,0.1,25.5,1.6,50.8,25.8c14.7,14.1,26.6,32.9,35.5,56.1
										c11,28.7,17.2,64.1,18.6,105.3L1248.9,876.4z"/>
								</g>
							</g>
							<g>
								<path class="st16" d="M1197.7,876.3c-1.9-169.6-31.7-180.3-32-180.4c0.2,0,0.2,0,0.2,0l1-7c3.7,0.5,35.8,10.4,37.8,187.2
									L1197.7,876.3z"/>
							</g>
						</g>
					</g>
					<g>
						<g>
							<path class="st15" d="M1107.9,1189.8c18.9,6.7,45.6,17.2,61.7,23.6c8.4,3.3,13.8,11.4,13.8,20.4v25.2h-83.9
								c-9.8,0-17.5-8.2-16.9-18l2.3-36C1085.7,1193.5,1097.2,1186,1107.9,1189.8z"/>
							<path class="st5" d="M1183.5,1233.8c0-9-5.5-17.1-13.8-20.4c-16.1-6.4-42.8-16.9-61.7-23.6c-7.7-2.7-15.7,0.3-19.9,6.4
								c3.7-1.5,8.1-1.8,12.3-0.3c18.9,6.7,45.6,17.2,61.7,23.6c8.4,3.3,13.8,11.4,13.8,20.4v19.1h7.6V1233.8z"/>
						</g>
						<g>
							<path class="st15" d="M1230,1189.8c-18.9,6.7-45.6,17.2-61.7,23.6c-8.4,3.3-13.8,11.4-13.8,20.4v25.2h83.9
								c9.8,0,17.5-8.2,16.9-18l-2.3-36C1252.2,1193.5,1240.8,1186,1230,1189.8z"/>
							<path class="st5" d="M1154.5,1233.8c0-9,5.5-17.1,13.8-20.4c16.1-6.4,42.8-16.9,61.7-23.6c7.7-2.7,15.7,0.3,19.9,6.4
								c-3.7-1.5-8.1-1.8-12.3-0.3c-18.9,6.7-45.6,17.2-61.7,23.6c-8.4,3.3-13.8,11.4-13.8,20.4v19.1h-7.6V1233.8z"/>
						</g>
					</g>
				</g>
				<g>
					<polygon class="st9" points="1093.5,1494.7 1143.7,1494.7 1143.7,1561.6 1088.3,1561.6 					"/>
					<path class="st11" d="M1120.7,1494.7l24.7-106.7c1.7-7.4,8.2-12.6,15.6-12.6l0,0v169.9c0,9-7.1,16.3-15.9,16.3h-10.4
						L1120.7,1494.7z"/>
					<path class="st9" d="M1152.8,1377.7v137.6c0,12.1-9.6,21.8-21.3,21.8h-1.9l5.1,24.5h10.4c8.8,0,15.9-7.3,15.9-16.3v-169.9
						C1158,1375.4,1155.2,1376.2,1152.8,1377.7z"/>
					<g>
						<path class="st4" d="M1089.3,1481.8H920.7l110.6-137.7c15.9-19.8,13.1-49-6.2-65.3c-19.3-16.3-47.9-13.4-63.8,6.3L828.9,1450
							c-18.5,23-22.2,54-9.8,80.9c12.4,26.9,38.2,43.6,67.3,43.6h203c25,0,45.3-20.8,45.3-46.4
							C1134.6,1502.6,1114.4,1481.8,1089.3,1481.8z"/>
						<path class="st5" d="M861.4,1489c0,3.2,2.5,5.7,5.6,5.7h253.7c-8.1-8-19.2-12.9-31.3-12.9h-65.5l-156.9,1.4
							C863.9,1483.2,861.4,1485.8,861.4,1489z"/>
						<polygon class="st15" points="874.2,1483.2 920.7,1481.8 962.1,1430.3 962.1,1378.6 						"/>
						<path class="st15" d="M819.1,1531c12.4,26.9,38.2,43.6,67.3,43.6h203c24.1,0,43.8-19.3,45.2-43.6H819.1z"/>
					</g>
				</g>
				<g>
					<polygon class="st9" points="1228.9,1494.7 1178.3,1494.7 1178.3,1561.6 1234.1,1561.6 					"/>
					<path class="st11" d="M1201.5,1494.7l-24.9-106.7c-1.7-7.4-8.2-12.6-15.7-12.6l0,0v169.9c0,9,7.2,16.3,16,16.3h10.5
						L1201.5,1494.7z"/>
					<path class="st9" d="M1169.2,1377.7v137.6c0,12.1,9.6,21.8,21.5,21.8h1.9l-5.2,24.5H1177c-8.9,0-16-7.3-16-16.3v-169.9
						C1163.9,1375.4,1166.7,1376.2,1169.2,1377.7z"/>
					<g>
						<path class="st4" d="M1495.6,1450l-133.5-164.8c-16-19.8-44.8-22.6-64.3-6.3c-19.5,16.3-22.3,45.5-6.2,65.3l111.5,137.7h-170
							c-25.2,0-45.7,20.8-45.7,46.4c0,25.6,20.4,46.4,45.7,46.4h204.6c29.3,0,55.3-16.7,67.8-43.6
							C1518.1,1504,1514.3,1473,1495.6,1450z"/>
						<path class="st5" d="M1462.9,1489c0,3.2-2.5,5.7-5.7,5.7h-255.7c8.2-8,19.3-12.9,31.6-12.9h66l158.2,1.4
							C1460.4,1483.2,1462.9,1485.8,1462.9,1489z"/>
						<polygon class="st15" points="1450,1483.2 1403.1,1481.8 1361.3,1430.3 1361.3,1378.6 						"/>
						<path class="st15" d="M1505.5,1531c-12.5,26.9-38.5,43.6-67.8,43.6h-204.6c-24.3,0-44.2-19.3-45.6-43.6H1505.5z"/>
					</g>
				</g>
			</g>
		</g>
		<g>
			<g>
				<path class="st5" d="M199.1,1904c-7.2,0-14.1-3-19-8.3c-5-5.4-7.5-12.6-6.9-19.9l20-243.8h-22.8c-36.5,0-68.8-20.9-84.3-54.5
					c-1.1-2.4-1.8-4.8-2.1-7.3c-12.7-32.1-7.4-68.1,14.3-95.1l6.2-7.8c-0.4-5.2,0.9-10.5,3.6-15.1l107.1-178.7
					c4.5-7.4,6.4-15.9,5.7-24.6L201.2,1023c-1.5-17.4,1.5-35,8.8-50.9l43.1-94.1c2.1-4.5,5.4-8.3,9.5-11L404,775.7
					c4.2-2.7,9.1-4.2,14.1-4.2H442c5.3,0,10.4,1.6,14.8,4.6L585,864.9c5.8,2.5,10.7,7.1,13.5,13.1l43.1,94.1
					c7.3,15.9,10.3,33.5,8.8,50.9L630.6,1249c-0.8,8.6,1.2,17.1,5.7,24.6l107.1,178.7c4.1,6.9,4.8,15.2,2,22.7
					c-0.6,1.5-1.2,2.9-2,4.2c20.4,28,24,64.4,9.2,96.2c-3,6.4-6.6,12.5-10.9,18c-0.8,1.1-1.7,2.2-2.6,3.2c-1.8,2.1-3.6,4.2-5.6,6.1
					c-2.3,2.3-4.8,4.5-7.3,6.6c-2.6,2.1-5.2,4-8,5.8c-1.8,1.2-3.7,2.3-5.7,3.4c-1.9,1-3.9,2-5.9,2.9c-2,0.9-4,1.8-6.1,2.5
					c-10.5,3.9-21.5,5.9-32.7,5.9h-6.4l33.5,238.6c1,7.4-1.2,14.9-6,20.5s-11.9,9-19.4,9.1l-470,6C199.3,1904,199.2,1904,199.1,1904
					z"/>
			</g>
			<g>
				<path class="st17" d="M231,1490.1c-1.6-0.3-3.2-0.6-4.7-0.9l-24.9,31h27.2L231,1490.1z"/>
				<polygon class="st17" points="616.2,1495 619.7,1520.1 636.5,1520.1 				"/>
				<polygon class="st18" points="445.8,1626.3 219.8,1626.3 199.1,1878 445.8,1874.9 				"/>
				<path class="st19" d="M294.5,1520.1h59c0.7,0,1.4,0,2.1,0.1c0.3,0,0.5,0,0.8,0.1c0.4,0,0.8,0.1,1.3,0.1c0.3,0,0.7,0.1,1,0.1
					c0.3,0,0.7,0.1,1,0.1c0.4,0.1,0.7,0.1,1.1,0.2c0.3,0.1,0.6,0.1,0.8,0.2c0.4,0.1,0.8,0.2,1.2,0.3c0.2,0.1,0.5,0.1,0.7,0.2
					c0.4,0.1,0.9,0.2,1.3,0.4c0.2,0.1,0.4,0.1,0.6,0.2c0.5,0.1,0.9,0.3,1.4,0.5c0.2,0.1,0.3,0.1,0.5,0.2c0.5,0.2,1,0.4,1.4,0.6
					c0.1,0.1,0.3,0.1,0.4,0.2c0.5,0.2,1,0.4,1.5,0.7c0.1,0,0.2,0.1,0.3,0.1c0.5,0.2,1,0.5,1.5,0.8c0.1,0,0.1,0.1,0.2,0.1
					c0.5,0.3,1,0.6,1.5,0.9c0,0,0.1,0.1,0.1,0.1c0.5,0.3,1,0.6,1.5,1c0,0,0.1,0,0.1,0.1c0.5,0.3,1,0.7,1.5,1.1c0,0,0,0,0,0
					c0.5,0.4,1,0.8,1.5,1.2c0,0,0,0,0,0c1,0.8,2,1.7,2.9,2.6l5.4-23.4c-54.4-0.9-110.4-9.2-156.2-18.3l-2.5,30H294.5z"/>
				<path class="st11" d="M432.4,1186.5c-11.4-0.1-22.2-3.3-30.5-9c-9.2-6.3-14.2-15-14.2-24.4c0-3.7,3-6.7,6.7-6.7s6.7,3,6.7,6.7
					c0,10.7,14.3,19.8,31.3,20v-35.9c-6.8,0-13.6-4.4-13.7-13.3c-0.2-18.2,13.7-36.1,13.7-36.1V942.4H431h-11
					c0,0-22.5,18.8-49.7,41.4c4.6,1.5,8.8,3.5,12.5,6.1c9.2,6.3,14.2,15,14.2,24.4c0,3.7-3,6.7-6.7,6.7c-3.7,0-6.7-3-6.7-6.7
					c0-9.6-11.6-18-26.4-19.7c-21.7,18.1-44.6,37-60.4,49.9c2.3,113.2,79.5,175.2,109.5,195h26V1186.5z M340.2,1131.7
					c-14.5,0-26.2-11.7-26.2-26.2s11.7-26.2,26.2-26.2c14.5,0,26.2,11.7,26.2,26.2S354.6,1131.7,340.2,1131.7z M354.5,1073.9
					c-12.9,0-23.4-12-23.4-26.8c0-0.5,0-1.1,0-1.6c-8.8,0.7-12.7-3.9-12.7-3.9c5,0.7,9.6-0.3,13.6-2c0.2-0.7,0.4-1.5,0.6-2.2
					c-8.7,0.7-12.5-3.9-12.5-3.9c6.1,0.8,11.6-0.8,16-3.1c2.9-4.2,6.9-7.4,11.5-9c0,0,0,0,0,0s0,0,0,0c2.1-0.7,4.4-1.2,6.8-1.2
					c8.7,0,16.2,5.4,20.3,13.4c0.7-0.1,1.4-0.2,2.1-0.2c7.5,0,13.5,6,13.5,13.5c0,7.5-6,13.5-13.5,13.5c-0.7,0-1.4-0.1-2.1-0.2
					C370.8,1068.4,363.2,1073.9,354.5,1073.9z"/>
				<path class="st9" d="M554.6,1048.2l-54.9-53.8c-16.4,0.7-30,9.6-30,20c0,3.7-3,6.7-6.7,6.7s-6.7-3-6.7-6.7
					c0-9.4,5.1-18.1,14.2-24.4c4.9-3.4,10.7-5.9,17-7.4l-41-40.1h-14.2v145.4c10.7,15.1,13.7,27.2,13.3,36.7
					c-0.4,8.5-6.8,12.7-13.3,12.7v35.9c0.3,0,0.5,0,0.8,0c17.4,0,32.1-9.2,32.1-20c0-3.7,3-6.7,6.7-6.7c3.7,0,6.7,3,6.7,6.7
					c0,9.4-5.1,18.1-14.2,24.4c-8.4,5.8-19.5,9-31.2,9c-0.3,0-0.5,0-0.8,0v53h12.8C474.8,1219.9,550.7,1159.1,554.6,1048.2z
					 M536.8,1105.5c0,14.5-11.7,26.2-26.2,26.2s-26.2-11.7-26.2-26.2s11.7-26.2,26.2-26.2S536.8,1091,536.8,1105.5z M475.7,1047.1
					c0-14.8,10.5-26.8,23.4-26.8c8.3,0,15.5,4.9,19.7,12.3c3.2,1,6.8,1.4,10.6,0.9c0,0-2.6,3.1-8.5,3.8c0.4,1.2,0.7,2.4,1,3.7
					c2.9,0.7,6,1,9.2,0.5c0,0-2.7,3.2-8.7,3.8c0,0.5,0,1.1,0,1.6c0,0.2,0,0.3,0,0.5c2.3,1.7,3.7,4.5,3.7,7.5c0,5.2-4.2,9.5-9.4,9.5
					c-4.3,5.6-10.6,9.2-17.6,9.2C486.2,1073.9,475.7,1061.9,475.7,1047.1z"/>
				<path class="st12" d="M363.4,1047.1c0-6.7,4.9-12.3,11.4-13.3c-4-8-11.6-13.4-20.3-13.4c-2.4,0-4.6,0.4-6.8,1.2c0,0,0,0,0,0
					s0,0,0,0c-4.6,1.6-8.6,4.8-11.5,9c-4.4,2.3-9.9,3.9-16,3.1c0,0,3.8,4.5,12.5,3.9c-0.2,0.7-0.5,1.4-0.6,2.2
					c-4,1.6-8.6,2.6-13.6,2c0,0,3.9,4.6,12.7,3.9c0,0.5,0,1.1,0,1.6c0,14.8,10.5,26.8,23.4,26.8c8.7,0,16.2-5.4,20.3-13.4
					C368.3,1059.4,363.4,1053.8,363.4,1047.1z"/>
				<path class="st5" d="M363.4,1047.1c0,6.7,4.9,12.3,11.4,13.3c0.7,0.1,1.4,0.2,2.1,0.2c7.5,0,13.5-6,13.5-13.5
					c0-7.5-6-13.5-13.5-13.5c-0.7,0-1.4,0.1-2.1,0.2C368.3,1034.8,363.4,1040.3,363.4,1047.1z"/>
				<path class="st12" d="M499.1,1073.9c7,0,13.3-3.6,17.6-9.2c0,0-0.1,0-0.1,0c-5.3,0-9.5-4.3-9.5-9.5s4.3-9.5,9.5-9.5
					c2.2,0,4.2,0.8,5.8,2c0-0.2,0-0.3,0-0.5c0-0.6,0-1.1,0-1.6c6-0.6,8.7-3.8,8.7-3.8c-3.3,0.4-6.4,0.2-9.2-0.5
					c-0.3-1.3-0.6-2.5-1-3.7c5.9-0.7,8.5-3.8,8.5-3.8c-3.8,0.5-7.4,0.1-10.6-0.9c-4.2-7.4-11.4-12.3-19.7-12.3
					c-12.9,0-23.4,12-23.4,26.8S486.2,1073.9,499.1,1073.9z"/>
				<path class="st5" d="M507.1,1055.1c0,5.3,4.3,9.5,9.5,9.5c0,0,0.1,0,0.1,0c5.2-0.1,9.4-4.3,9.4-9.5c0-3.1-1.5-5.8-3.7-7.5
					c-1.6-1.3-3.6-2-5.8-2C511.3,1045.6,507.1,1049.8,507.1,1055.1z"/>
				<path class="st12" d="M456.3,1014.4c0,3.7,3,6.7,6.7,6.7s6.7-3,6.7-6.7c0-10.4,13.5-19.3,30-20l-12-11.8c-6.3,1.5-12.1,4-17,7.4
					C461.4,996.3,456.3,1005,456.3,1014.4z"/>
				<path class="st12" d="M383.7,1014.4c0,3.7,3,6.7,6.7,6.7c3.7,0,6.7-3,6.7-6.7c0-9.4-5.1-18.1-14.2-24.4
					c-3.7-2.6-7.9-4.6-12.5-6.1c-4.2,3.5-8.6,7.1-13,10.8C372.1,996.4,383.7,1004.7,383.7,1014.4z"/>
				<path class="st12" d="M401.1,1153.1c0-3.7-3-6.7-6.7-6.7s-6.7,3-6.7,6.7c0,9.4,5.1,18.1,14.2,24.4c8.2,5.7,19,8.9,30.5,9
					c0.3,0,0.5,0,0.8,0c11.7,0,22.8-3.2,31.2-9c9.2-6.3,14.2-15,14.2-24.4c0-3.7-3-6.7-6.7-6.7c-3.7,0-6.7,3-6.7,6.7
					c0,10.9-14.7,20-32.1,20c-0.3,0-0.5,0-0.8,0C415.4,1172.8,401.1,1163.8,401.1,1153.1z"/>
				<path class="st9" d="M384.1,1592h10.3l-2.7-12.8C389.9,1583.9,387.3,1588.3,384.1,1592z"/>
				<polygon class="st18" points="294.5,1520.1 228.5,1520.1 201.4,1520.1 162.2,1521.3 				"/>
				<path class="st18" d="M389.1,1566.7l-7.3-35h-24.5H153c-2.8,0-5.1-2.3-5.1-5.2c0-2.9,2.3-5.2,5.1-5.2l6.6-0.1l33.2-39.5
					c10.3,2.4,21.6,4.8,33.6,7.3l-24.9,31l24.9-31c1.6,0.3,3.1,0.6,4.7,0.9c45.8,9.1,101.8,17.4,156.2,18.3l16.9-72.9
					c1-4.3,3.8-7.8,7.5-9.8c0,0,0.1,0,0.1,0c0.8-0.4,1.6-0.7,2.4-1c0.1,0,0.2-0.1,0.3-0.1c0.2-0.1,0.4-0.1,0.6-0.1
					c0.2,0,0.4-0.1,0.5-0.1c0.2,0,0.3-0.1,0.5-0.1c0.2,0,0.5-0.1,0.7-0.1c0.1,0,0.3,0,0.4,0c0.4,0,0.7,0,1.1,0c0,0,0,0,0,0l0,0h0
					l0,0c0.4,0,0.8,0,1.1,0c0.1,0,0.3,0,0.4,0c0.2,0,0.5,0.1,0.7,0.1c0.2,0,0.3,0.1,0.5,0.1c0.2,0,0.4,0.1,0.5,0.1
					c0.2,0,0.4,0.1,0.6,0.1c0.1,0,0.2,0.1,0.3,0.1c0.8,0.2,1.6,0.6,2.4,1c0,0,0.1,0,0.1,0c0.3,0.1,0.5,0.3,0.8,0.4c0,0,0,0,0,0l0,0
					c3.3,2,5.8,5.3,6.8,9.3l1.2,5.2v-194c0,0,4.5-2.3,11.7-7.1h-12.8h-26c-30-19.8-107.2-81.8-109.5-195
					c15.8-12.9,38.7-31.8,60.4-49.9c4.4-3.7,8.8-7.3,13-10.8c27.2-22.6,49.7-41.4,49.7-41.4h11V797.5h-12.9l-141.4,91.3l-43.1,94.1
					c-5.4,11.8-7.7,24.9-6.5,37.8l19.8,225.9c1.2,14-2,28.1-9.3,40.2l-107.1,178.7c0,0,2.5,0.8,7.1,2.1l-19,23.7
					c-16.7,20.7-20.1,48.7-8.9,73c0.4,0.8,0.7,1.6,1.1,2.3H389.1z"/>
				<path class="st18" d="M360.8,1520.8c-0.4-0.1-0.7-0.1-1.1-0.2C360,1520.6,360.4,1520.7,360.8,1520.8z"/>
				<path class="st18" d="M362.8,1521.2c-0.4-0.1-0.8-0.2-1.2-0.3C362,1521,362.4,1521.1,362.8,1521.2z"/>
				<path class="st18" d="M378.9,1529.2c1,0.8,2,1.7,2.9,2.6l0,0C380.9,1530.8,379.9,1530,378.9,1529.2z"/>
				<path class="st18" d="M358.6,1520.4c-0.3,0-0.7-0.1-1-0.1C358,1520.3,358.3,1520.4,358.6,1520.4z"/>
				<path class="st18" d="M374.1,1525.8c-0.5-0.3-1-0.6-1.5-0.9C373.1,1525.2,373.6,1525.5,374.1,1525.8z"/>
				<path class="st18" d="M356.4,1520.2c-0.3,0-0.5,0-0.8-0.1C355.9,1520.2,356.1,1520.2,356.4,1520.2z"/>
				<path class="st18" d="M364.8,1521.7c-0.4-0.1-0.9-0.3-1.3-0.4C364,1521.5,364.4,1521.6,364.8,1521.7z"/>
				<path class="st18" d="M370.6,1523.9c-0.5-0.2-1-0.5-1.5-0.7C369.6,1523.5,370.1,1523.7,370.6,1523.9z"/>
				<path class="st18" d="M366.8,1522.4c-0.5-0.2-0.9-0.3-1.4-0.5C365.9,1522.1,366.4,1522.2,366.8,1522.4z"/>
				<path class="st18" d="M378.9,1529.2c-0.5-0.4-1-0.8-1.5-1.2C377.9,1528.4,378.4,1528.8,378.9,1529.2z"/>
				<path class="st18" d="M368.7,1523.1c-0.5-0.2-0.9-0.4-1.4-0.6C367.8,1522.7,368.2,1522.9,368.7,1523.1z"/>
				<path class="st18" d="M372.4,1524.8c-0.5-0.3-1-0.5-1.5-0.8C371.4,1524.3,371.9,1524.5,372.4,1524.8z"/>
				<path class="st18" d="M375.8,1526.8c-0.5-0.3-1-0.7-1.5-1C374.7,1526.2,375.3,1526.5,375.8,1526.8z"/>
				<path class="st18" d="M377.4,1528c-0.5-0.4-1-0.7-1.5-1.1C376.4,1527.2,376.9,1527.6,377.4,1528z"/>
				<path class="st20" d="M378.9,1529.2c-0.5-0.4-1-0.8-1.5-1.2c0,0,0,0,0,0c-0.5-0.4-1-0.7-1.5-1.1c0,0-0.1,0-0.1-0.1
					c-0.5-0.3-1-0.7-1.5-1c0,0-0.1-0.1-0.1-0.1c-0.5-0.3-1-0.6-1.5-0.9c-0.1,0-0.1-0.1-0.2-0.1c-0.5-0.3-1-0.5-1.5-0.8
					c-0.1,0-0.2-0.1-0.3-0.1c-0.5-0.2-1-0.5-1.5-0.7c-0.1-0.1-0.2-0.1-0.4-0.2c-0.5-0.2-0.9-0.4-1.4-0.6c-0.2-0.1-0.3-0.1-0.5-0.2
					c-0.5-0.2-0.9-0.3-1.4-0.5c-0.2-0.1-0.4-0.1-0.6-0.2c-0.4-0.1-0.9-0.3-1.3-0.4c-0.2-0.1-0.5-0.1-0.7-0.2
					c-0.4-0.1-0.8-0.2-1.2-0.3c-0.3-0.1-0.6-0.1-0.8-0.2c-0.4-0.1-0.7-0.1-1.1-0.2c-0.3-0.1-0.7-0.1-1-0.1c-0.3,0-0.7-0.1-1-0.1
					c-0.4,0-0.8-0.1-1.3-0.1c-0.3,0-0.5,0-0.8-0.1c-0.7,0-1.4-0.1-2.1-0.1h-59l-132.3,1.2l-2.7,0.1l0-0.1l-6.6,0.1
					c-2.8,0-5.1,2.3-5.1,5.2c0,2.9,2.3,5.2,5.1,5.2h204.4h24.5C380.9,1530.8,379.9,1530,378.9,1529.2
					C378.9,1529.2,378.9,1529.2,378.9,1529.2z"/>
				<path class="st19" d="M162.2,1521.3l39.2-1.2l24.9-31c-12-2.4-23.3-4.9-33.6-7.3l-33.2,39.5l0,0.1L162.2,1521.3z"/>
				<path class="st9" d="M442,1592h12.6c-0.3-0.3-0.6-0.6-0.8-0.8c-0.2-0.2-0.3-0.4-0.5-0.5c-0.3-0.3-0.6-0.6-0.8-0.9
					c-0.1-0.2-0.3-0.3-0.4-0.5c-0.3-0.3-0.6-0.7-0.8-1c-0.1-0.2-0.3-0.3-0.4-0.5c-0.3-0.4-0.5-0.7-0.8-1.1c-0.1-0.2-0.2-0.3-0.3-0.5
					c-0.3-0.4-0.5-0.8-0.8-1.2c-0.1-0.1-0.2-0.3-0.3-0.4c-0.3-0.4-0.5-0.8-0.8-1.3c-0.1-0.1-0.1-0.2-0.2-0.3
					c-0.3-0.5-0.5-0.9-0.8-1.4c0-0.1-0.1-0.1-0.1-0.2c-0.3-0.5-0.5-1-0.8-1.6c0,0,0,0,0,0c-0.3-0.7-0.6-1.4-0.9-2.1L442,1592z"/>
				<path class="st18" d="M704,1593.2c-1.3,0.9-2.7,1.7-4.1,2.4C701.3,1594.9,702.7,1594.1,704,1593.2z"/>
				<path class="st18" d="M715,1584.3c-1.7,1.7-3.5,3.3-5.3,4.8C711.6,1587.6,713.4,1586,715,1584.3z"/>
				<polygon class="st18" points="676,1521.3 636.5,1520.1 619.7,1520.1 542.7,1520.1 				"/>
				<path class="st18" d="M720,1491.4l-16.8-20.7c-12.9,3.5-32.3,8.5-55.7,13.7l31.3,36.9l6.6,0.1c2.8,0,5.1,2.3,5.1,5.2
					c0,2.9-2.3,5.2-5.1,5.2h-206h-24.7l-6.9,32.7h281.1c-3.5,7.6-8.2,14.3-13.9,19.9c5.6-5.6,10.3-12.3,13.9-19.9
					C740.2,1540.1,736.8,1512.2,720,1491.4z"/>
				<path class="st18" d="M700,1595.6c-1.4,0.8-2.8,1.5-4.2,2.1C697.2,1597.1,698.6,1596.4,700,1595.6z"/>
				<path class="st18" d="M473.8,1521.2c0.4-0.1,0.8-0.2,1.2-0.3C474.6,1521,474.2,1521.1,473.8,1521.2z"/>
				<path class="st18" d="M475.9,1520.8c0.4-0.1,0.8-0.1,1.1-0.2C476.6,1520.6,476.3,1520.7,475.9,1520.8z"/>
				<path class="st18" d="M467.9,1523.1c0.5-0.2,1-0.4,1.4-0.6C468.8,1522.7,468.4,1522.9,467.9,1523.1z"/>
				<path class="st18" d="M471.8,1521.7c0.4-0.1,0.9-0.3,1.3-0.4C472.6,1521.5,472.2,1521.6,471.8,1521.7z"/>
				<path class="st18" d="M478,1520.4c0.3,0,0.7-0.1,1-0.1C478.7,1520.3,478.4,1520.4,478,1520.4z"/>
				<path class="st18" d="M469.8,1522.4c0.5-0.2,0.9-0.3,1.4-0.5C470.7,1522.1,470.3,1522.2,469.8,1522.4z"/>
				<path class="st18" d="M457.4,1594.6c-0.3-0.2-0.6-0.5-0.9-0.7C456.9,1594.1,457.2,1594.4,457.4,1594.6z"/>
				<path class="st18" d="M459,1595.8c-0.3-0.2-0.6-0.4-0.9-0.7C458.4,1595.3,458.7,1595.6,459,1595.8z"/>
				<path class="st18" d="M480.3,1520.2c0.3,0,0.5,0,0.8-0.1C480.8,1520.2,480.6,1520.2,480.3,1520.2z"/>
				<path class="st18" d="M456,1593.3c-0.3-0.3-0.6-0.5-0.9-0.8C455.4,1592.8,455.7,1593.1,456,1593.3z"/>
				<path class="st18" d="M454.7,1531.7L454.7,1531.7c0.9-0.9,1.9-1.8,2.9-2.6C456.6,1530,455.6,1530.8,454.7,1531.7z"/>
				<path class="st18" d="M466,1523.9c0.5-0.2,1-0.5,1.5-0.7C467,1523.5,466.5,1523.7,466,1523.9z"/>
				<path class="st18" d="M460.6,1596.9c-0.3-0.2-0.6-0.4-0.9-0.6C460,1596.5,460.3,1596.7,460.6,1596.9z"/>
				<path class="st18" d="M467.4,1600.6c-0.3-0.1-0.6-0.3-0.9-0.4C466.8,1600.3,467.1,1600.5,467.4,1600.6z"/>
				<path class="st18" d="M473.1,1602.5c-0.3-0.1-0.6-0.2-0.9-0.3C472.5,1602.3,472.8,1602.4,473.1,1602.5z"/>
				<path class="st18" d="M471.2,1602c-0.3-0.1-0.6-0.2-0.9-0.3C470.5,1601.8,470.8,1601.9,471.2,1602z"/>
				<path class="st18" d="M469.3,1601.3c-0.3-0.1-0.6-0.2-0.9-0.4C468.7,1601.1,469,1601.2,469.3,1601.3z"/>
				<path class="st18" d="M475,1603c-0.3-0.1-0.6-0.1-0.9-0.2C474.4,1602.8,474.7,1602.9,475,1603z"/>
				<path class="st18" d="M481.1,1603.7c-0.2,0-0.5,0-0.7-0.1C480.6,1603.7,480.9,1603.7,481.1,1603.7z"/>
				<path class="st18" d="M479.1,1603.6c-0.3,0-0.5-0.1-0.8-0.1C478.5,1603.5,478.8,1603.5,479.1,1603.6z"/>
				<path class="st18" d="M477,1603.3c-0.3,0-0.6-0.1-0.9-0.2C476.4,1603.2,476.7,1603.3,477,1603.3z"/>
				<path class="st18" d="M460.8,1526.8c0.5-0.3,1-0.7,1.5-1C461.8,1526.2,461.3,1526.5,460.8,1526.8z"/>
				<path class="st18" d="M465.6,1599.8c-0.3-0.1-0.6-0.3-0.9-0.5C465,1599.5,465.3,1599.6,465.6,1599.8z"/>
				<path class="st18" d="M459.2,1528c0.5-0.4,1-0.7,1.5-1.1C460.2,1527.2,459.7,1527.6,459.2,1528z"/>
				<path class="st18" d="M457.6,1529.2c0.5-0.4,1-0.8,1.5-1.2C458.6,1528.4,458.1,1528.8,457.6,1529.2z"/>
				<path class="st18" d="M462.5,1525.8c0.5-0.3,1-0.6,1.5-0.9C463.5,1525.2,463,1525.5,462.5,1525.8z"/>
				<path class="st18" d="M464.2,1524.8c0.5-0.3,1-0.5,1.5-0.8C465.2,1524.3,464.7,1524.5,464.2,1524.8z"/>
				<path class="st18" d="M462.2,1597.9c-0.3-0.2-0.6-0.4-0.9-0.6C461.6,1597.6,461.9,1597.8,462.2,1597.9z"/>
				<path class="st18" d="M463.9,1598.9c-0.3-0.2-0.6-0.3-0.9-0.5C463.3,1598.6,463.6,1598.7,463.9,1598.9z"/>
				<path class="st18" d="M446,1579.8c0.2,0.5,0.5,1.1,0.8,1.6C446.5,1580.9,446.2,1580.4,446,1579.8z"/>
				<path class="st18" d="M451.1,1588.2c0.3,0.3,0.5,0.7,0.8,1C451.7,1588.9,451.4,1588.5,451.1,1588.2z"/>
				<path class="st18" d="M446.8,1581.6c0.2,0.5,0.5,0.9,0.8,1.4C447.3,1582.5,447.1,1582.1,446.8,1581.6z"/>
				<path class="st18" d="M450,1586.6c0.3,0.4,0.5,0.7,0.8,1.1C450.5,1587.4,450.2,1587,450,1586.6z"/>
				<path class="st18" d="M445.9,1579.8c-0.3-0.7-0.6-1.4-0.9-2.1l0,0C445.3,1578.4,445.6,1579.1,445.9,1579.8z"/>
				<path class="st18" d="M448.8,1585c0.3,0.4,0.5,0.8,0.8,1.2C449.4,1585.8,449.1,1585.4,448.8,1585z"/>
				<path class="st18" d="M454.6,1592C454.6,1592,454.6,1592,454.6,1592c-0.3-0.3-0.6-0.6-0.8-0.8
					C454,1591.5,454.3,1591.7,454.6,1592z"/>
				<path class="st18" d="M452.4,1589.7c0.3,0.3,0.5,0.6,0.8,0.9C453,1590.3,452.7,1590,452.4,1589.7z"/>
				<path class="st18" d="M447.8,1583.3c0.3,0.4,0.5,0.9,0.8,1.3C448.3,1584.2,448,1583.8,447.8,1583.3z"/>
				<path class="st20" d="M676,1521.3l-133.3-1.2h-59.5c-0.7,0-1.4,0-2.1,0.1c-0.3,0-0.5,0-0.8,0.1c-0.4,0-0.8,0.1-1.3,0.1
					c-0.3,0-0.7,0.1-1,0.1c-0.3,0-0.7,0.1-1,0.1c-0.4,0.1-0.8,0.1-1.1,0.2c-0.3,0.1-0.6,0.1-0.9,0.2c-0.4,0.1-0.8,0.2-1.2,0.3
					c-0.2,0.1-0.5,0.1-0.7,0.2c-0.4,0.1-0.9,0.2-1.3,0.4c-0.2,0.1-0.4,0.1-0.6,0.2c-0.5,0.1-0.9,0.3-1.4,0.5
					c-0.2,0.1-0.3,0.1-0.5,0.2c-0.5,0.2-1,0.4-1.4,0.6c-0.1,0.1-0.3,0.1-0.4,0.2c-0.5,0.2-1,0.4-1.5,0.7c-0.1,0-0.2,0.1-0.3,0.1
					c-0.5,0.2-1,0.5-1.5,0.8c-0.1,0-0.1,0.1-0.2,0.1c-0.5,0.3-1,0.6-1.5,0.9c0,0-0.1,0.1-0.1,0.1c-0.5,0.3-1,0.6-1.5,1
					c0,0-0.1,0-0.1,0.1c-0.5,0.3-1,0.7-1.5,1.1c0,0,0,0,0,0c-0.5,0.4-1,0.8-1.5,1.2c0,0,0,0,0,0c-1,0.8-2,1.7-2.9,2.6h24.7h206
					c2.8,0,5.1-2.3,5.1-5.2c0-2.9-2.3-5.2-5.1-5.2l-6.6-0.1l0,0.1L676,1521.3z"/>
				<path class="st19" d="M447.8,1564.4l-2.8,13.3c0.3,0.7,0.6,1.4,0.9,2.1c0,0,0,0,0,0c0.2,0.5,0.5,1.1,0.8,1.6
					c0,0.1,0.1,0.1,0.1,0.2c0.2,0.5,0.5,0.9,0.8,1.4c0.1,0.1,0.1,0.2,0.2,0.3c0.3,0.4,0.5,0.9,0.8,1.3c0.1,0.1,0.2,0.3,0.3,0.4
					c0.3,0.4,0.5,0.8,0.8,1.2c0.1,0.2,0.2,0.3,0.3,0.5c0.3,0.4,0.5,0.7,0.8,1.1c0.1,0.2,0.3,0.3,0.4,0.5c0.3,0.3,0.5,0.7,0.8,1
					c0.1,0.2,0.3,0.3,0.4,0.5c0.3,0.3,0.5,0.6,0.8,0.9c0.2,0.2,0.3,0.4,0.5,0.5c0.3,0.3,0.6,0.6,0.8,0.8c0,0,0,0,0,0H442h-8.3h-1.2
					h0c-4.5,0-8.5-2.1-11.2-5.3c-1.5-1.8-2.5-4-3-6.4c-0.2-1-0.3-1.9-0.3-3c0,8.1-6.4,14.7-14.4,14.7h0h-1.2h-8.2h-10.3
					c3.2-3.7,5.8-8.1,7.6-12.8l-2.6-12.4H110.9h-1.1c11.2,24.3,34.4,39.4,60.7,39.4h51l-1.7,20.2l0,0h226v248.6l0,0l223.3-2.9
					l-37.6-268.2h36.3h0c8.3,0,16.2-1.5,23.6-4.2c1.5-0.6,2.9-1.2,4.4-1.8c1.4-0.7,2.8-1.4,4.2-2.1c1.4-0.8,2.7-1.6,4.1-2.4
					c2-1.3,3.9-2.7,5.7-4.1c1.8-1.5,3.6-3.1,5.3-4.8c5.6-5.6,10.3-12.3,13.9-19.9H447.8z M455.1,1592.5c0.3,0.3,0.6,0.5,0.9,0.8
					C455.7,1593.1,455.4,1592.8,455.1,1592.5z M456.6,1593.9c0.3,0.2,0.6,0.5,0.9,0.7C457.2,1594.4,456.9,1594.1,456.6,1593.9z
					 M458.1,1595.1c0.3,0.2,0.6,0.4,0.9,0.7C458.7,1595.6,458.4,1595.3,458.1,1595.1z M459.7,1596.3c0.3,0.2,0.6,0.4,0.9,0.6
					C460.3,1596.7,460,1596.5,459.7,1596.3z M461.3,1597.4c0.3,0.2,0.6,0.4,0.9,0.6C461.9,1597.8,461.6,1597.6,461.3,1597.4z
					 M463,1598.4c0.3,0.2,0.6,0.3,0.9,0.5C463.6,1598.7,463.3,1598.6,463,1598.4z M464.7,1599.3c0.3,0.2,0.6,0.3,0.9,0.5
					C465.3,1599.6,465,1599.5,464.7,1599.3z M466.5,1600.2c0.3,0.1,0.6,0.3,0.9,0.4C467.1,1600.5,466.8,1600.3,466.5,1600.2z
					 M468.4,1601c0.3,0.1,0.6,0.2,0.9,0.4C469,1601.2,468.7,1601.1,468.4,1601z M470.2,1601.7c0.3,0.1,0.6,0.2,0.9,0.3
					C470.8,1601.9,470.5,1601.8,470.2,1601.7z M472.2,1602.3c0.3,0.1,0.6,0.2,0.9,0.3C472.8,1602.4,472.5,1602.3,472.2,1602.3z
					 M474.1,1602.8c0.3,0.1,0.6,0.1,0.9,0.2C474.7,1602.9,474.4,1602.8,474.1,1602.8z M476.2,1603.2c0.3,0.1,0.6,0.1,0.9,0.2
					C476.7,1603.3,476.4,1603.2,476.2,1603.2z M478.2,1603.5c0.3,0,0.5,0.1,0.8,0.1C478.8,1603.5,478.5,1603.5,478.2,1603.5z
					 M480.4,1603.7c0.2,0,0.5,0,0.7,0.1C480.9,1603.7,480.6,1603.7,480.4,1603.7z"/>
				<path class="st19" d="M431,942.4h1.4h14.2l41,40.1l12,11.8l54.9,53.8c-3.9,110.9-79.8,171.7-109.4,191.3
					c-7.2,4.8-11.7,7.1-11.7,7.1v194l21.2,91.1c0.9-0.9,1.9-1.8,2.9-2.6c0,0,0,0,0,0c0.5-0.4,1-0.8,1.5-1.2c0,0,0,0,0,0
					c0.5-0.4,1-0.7,1.5-1.1c0,0,0.1,0,0.1-0.1c0.5-0.3,1-0.7,1.5-1c0,0,0.1-0.1,0.1-0.1c0.5-0.3,1-0.6,1.5-0.9
					c0.1,0,0.1-0.1,0.2-0.1c0.5-0.3,1-0.5,1.5-0.8c0.1,0,0.2-0.1,0.3-0.1c0.5-0.2,1-0.5,1.5-0.7c0.1-0.1,0.3-0.1,0.4-0.2
					c0.5-0.2,1-0.4,1.4-0.6c0.2-0.1,0.3-0.1,0.5-0.2c0.5-0.2,0.9-0.3,1.4-0.5c0.2-0.1,0.4-0.1,0.6-0.2c0.4-0.1,0.9-0.3,1.3-0.4
					c0.2-0.1,0.5-0.1,0.7-0.2c0.4-0.1,0.8-0.2,1.2-0.3c0.3-0.1,0.6-0.1,0.9-0.2c0.4-0.1,0.8-0.1,1.1-0.2c0.3-0.1,0.7-0.1,1-0.1
					c0.3,0,0.7-0.1,1-0.1c0.4,0,0.8-0.1,1.3-0.1c0.3,0,0.5,0,0.8-0.1c0.7,0,1.4-0.1,2.1-0.1h59.5h77.1l-3.5-25.1l20.3,25.1l39.5,1.2
					l2.8,0.1l0-0.1l-31.3-36.9c23.5-5.2,42.8-10.2,55.7-13.7c11.4-3.1,17.9-5.1,17.9-5.1l-107.1-178.7c-7.2-12.1-10.5-26.2-9.3-40.2
					l19.8-225.9c1.1-13-1.1-26-6.5-37.8l-43.1-94.1l-0.6,4.5v-4.2L442,797.5h-11V942.4z"/>
				<path class="st11" d="M389.8,1569.9h1.7c10.6,0,19.2-8.8,19.2-19.7v-124.1c0.3-0.2,0.5-0.3,0.8-0.4c-3.7,1.9-6.5,5.4-7.5,9.8
					l-16.9,72.9l-5.4,23.4l0,0l7.3,35l2.6,12.4l2.7,12.8L389.8,1569.9z"/>
				<path class="st11" d="M416.6,1424.2c0.1,0,0.3,0,0.4,0C416.8,1424.1,416.7,1424.1,416.6,1424.2z"/>
				<path class="st11" d="M414.3,1424.6c0.2-0.1,0.4-0.1,0.6-0.1C414.7,1424.5,414.5,1424.5,414.3,1424.6z"/>
				<path class="st11" d="M411.6,1425.6c0.8-0.4,1.6-0.7,2.4-1C413.2,1424.9,412.4,1425.3,411.6,1425.6z"/>
				<path class="st11" d="M415.4,1424.3c0.2,0,0.3-0.1,0.5-0.1C415.7,1424.3,415.5,1424.3,415.4,1424.3z"/>
				<polygon class="st11" points="418.1,1424.1 418.1,1424.1 418.1,1424.1 				"/>
				<path class="st11" d="M433.5,1440.6l-1.2-5.2c-0.9-4-3.4-7.3-6.8-9.3v124.1c0,10.9,8.7,19.7,19.4,19.7h1.7L442,1592l3-14.3l0,0
					l2.8-13.3l6.9-32.7v0L433.5,1440.6z"/>
				<path class="st11" d="M422.2,1424.7c0.8,0.3,1.6,0.6,2.4,1C423.9,1425.3,423.1,1424.9,422.2,1424.7z"/>
				<path class="st11" d="M421.4,1424.5c0.2,0,0.4,0.1,0.6,0.1C421.8,1424.5,421.6,1424.5,421.4,1424.5z"/>
				<path class="st11" d="M424.7,1425.7c0.3,0.1,0.5,0.3,0.8,0.4C425.2,1426,425,1425.8,424.7,1425.7z"/>
				<path class="st11" d="M419.2,1424.1c0.1,0,0.3,0,0.4,0C419.5,1424.1,419.4,1424.1,419.2,1424.1z"/>
				<path class="st11" d="M420.3,1424.2c0.2,0,0.3,0.1,0.5,0.1C420.7,1424.3,420.5,1424.3,420.3,1424.2z"/>
				<path class="st9" d="M446.7,1569.9h-1.7c-10.7,0-19.4-8.8-19.4-19.7v-124.1l0,0c0,0,0,0,0,0c-0.3-0.2-0.5-0.3-0.8-0.4
					c0,0-0.1,0-0.1,0c-0.8-0.4-1.6-0.7-2.4-1c-0.1,0-0.2-0.1-0.3-0.1c-0.2-0.1-0.4-0.1-0.6-0.1c-0.2,0-0.4-0.1-0.5-0.1
					c-0.2,0-0.3-0.1-0.5-0.1c-0.2,0-0.5-0.1-0.7-0.1c-0.1,0-0.3,0-0.4,0c-0.4,0-0.8,0-1.1,0l0,0h0c0,0,0,0,0,0c-0.4,0-0.7,0-1.1,0
					c-0.1,0-0.3,0-0.4,0c-0.2,0-0.5,0.1-0.7,0.1c-0.2,0-0.3,0.1-0.5,0.1c-0.2,0-0.4,0.1-0.5,0.1c-0.2,0-0.4,0.1-0.6,0.1
					c-0.1,0-0.2,0.1-0.3,0.1c-0.8,0.3-1.6,0.6-2.4,1c0,0-0.1,0-0.1,0c-0.3,0.1-0.5,0.3-0.8,0.4v124.1c0,10.9-8.6,19.7-19.2,19.7
					h-1.7l4.6,22.1h8.2h1.2h0c7.9,0,14.4-6.6,14.4-14.7c0,1,0.1,2,0.3,3c0.5,2.4,1.5,4.6,3,6.4c2.7,3.3,6.7,5.3,11.2,5.3h0h1.2h8.3
					L446.7,1569.9z"/>
				<path class="st13" d="M432.4,1137.2c6.5,0,13-4.2,13.3-12.7c0.4-9.4-2.7-21.6-13.3-36.7c0,0-13.9,17.9-13.7,36.1
					C418.8,1132.8,425.7,1137.3,432.4,1137.2z"/>
				<circle class="st13" cx="510.5" cy="1105.5" r="26.2"/>
				<circle class="st13" cx="340.2" cy="1105.5" r="26.2"/>
			</g>
		</g>
		<g>
			<g>
				<path class="st5" d="M1670.6,1904c-7.2,0-14.1-3-19-8.3c-5-5.4-7.5-12.6-6.9-19.9l18.4-224.4h-19.2c-34.6,0-65.3-19.8-80-51.7
					c-1.1-2.3-1.8-4.7-2.1-7.1c-11.9-30.4-6.9-64.4,13.7-90l5.3-6.7c-0.2-5,1-10,3.7-14.4l99.5-166c3.9-6.6,5.7-14.1,5-21.7
					l-18.4-209.8c-1.4-16.5,1.4-33.2,8.3-48.2l40-87.4c2.1-4.5,5.4-8.3,9.5-11l131.3-84.8c4.2-2.7,9.1-4.2,14.1-4.2l22.2,0
					c5.3,0,10.4,1.6,14.8,4.6l119,82.3c5.7,2.5,10.6,7,13.3,13l40,87.4c6.9,15.1,9.8,31.7,8.3,48.2l-18.4,209.8
					c-0.7,7.6,1.1,15.1,5,21.7l99.5,166c4.1,6.9,4.8,15.2,2,22.7c-0.4,1.1-0.9,2.1-1.4,3.1c18.7,26.4,21.9,60.5,8,90.3
					c-7.7,16.5-19.9,30.1-35.3,39.3c-0.9,0.5-1.8,1-2.7,1.5c-12.9,7.1-27.5,10.8-42.4,10.8h-3.8l30.8,219.5c1,7.4-1.2,14.9-6,20.5
					c-4.9,5.7-11.9,9-19.4,9.1l-436.5,5.6C1670.8,1904,1670.7,1904,1670.6,1904z"/>
			</g>
			<g>
				<path class="st17" d="M1697.9,1545.6l2.3-27.9c-1.5-0.3-2.9-0.6-4.4-0.9l-23.1,28.8H1697.9z"/>
				<polygon class="st17" points="2076.9,1545.6 2076.9,1545.6 2076.9,1545.6 2058,1522.3 2061.3,1545.6 				"/>
				<polygon class="st4" points="1899.7,1644.2 1689.8,1644.2 1670.6,1878 2107.1,1872.4 1899.7,1875.1 				"/>
				<path class="st8" d="M1759.2,1545.6h54.8c0.6,0,1.3,0,1.9,0c0.2,0,0.5,0,0.7,0.1c0.4,0,0.8,0.1,1.2,0.1c0.3,0,0.6,0.1,0.9,0.1
					c0.3,0,0.6,0.1,0.9,0.1c0.4,0.1,0.7,0.1,1,0.2c0.3,0,0.5,0.1,0.8,0.1c0.4,0.1,0.8,0.2,1.1,0.3c0.2,0.1,0.4,0.1,0.7,0.2
					c0.4,0.1,0.8,0.2,1.2,0.3c0.2,0.1,0.4,0.1,0.5,0.2c0.4,0.1,0.8,0.3,1.3,0.4c0.1,0.1,0.3,0.1,0.4,0.2c0.4,0.2,0.9,0.3,1.3,0.5
					c0.1,0,0.2,0.1,0.4,0.1c0.5,0.2,0.9,0.4,1.4,0.6c0.1,0,0.2,0.1,0.3,0.1c0.5,0.2,0.9,0.5,1.4,0.7c0.1,0,0.1,0.1,0.2,0.1
					c0.5,0.3,0.9,0.5,1.4,0.8c0,0,0.1,0.1,0.1,0.1c0.5,0.3,1,0.6,1.4,0.9c0,0,0.1,0,0.1,0.1c0.5,0.3,0.9,0.7,1.4,1c0,0,0,0,0,0
					c0.5,0.3,0.9,0.7,1.4,1.1c0,0,0,0,0,0c0.5,0.4,0.9,0.8,1.4,1.2c0,0,0,0,0,0c0.4,0.4,0.9,0.8,1.3,1.2c0,0,0,0,0,0l5-21.7
					c-50.5-0.9-102.5-8.6-145-17l-2.3,27.9H1759.2z"/>
				<path class="st8" d="M1934.4,1623.3c-0.6,0-1.2,0-1.9,0c-0.2,0-0.4,0-0.7,0c-0.4,0-0.8-0.1-1.2-0.1c-0.3,0-0.5-0.1-0.8-0.1
					c-0.4,0-0.7-0.1-1.1-0.1c-0.3,0-0.6-0.1-0.8-0.1c-0.3-0.1-0.7-0.1-1-0.2c-0.3-0.1-0.6-0.1-0.8-0.2c-0.3-0.1-0.7-0.1-1-0.2
					c-0.3-0.1-0.6-0.2-0.9-0.2c-0.3-0.1-0.6-0.2-0.9-0.3c-0.3-0.1-0.6-0.2-0.9-0.3c-0.3-0.1-0.6-0.2-0.9-0.3
					c-0.3-0.1-0.6-0.2-0.9-0.3c-0.3-0.1-0.6-0.2-0.9-0.3c-0.3-0.1-0.6-0.2-0.9-0.4c-0.3-0.1-0.5-0.2-0.8-0.4
					c-0.3-0.1-0.6-0.3-0.8-0.4c-0.3-0.1-0.5-0.3-0.8-0.4c-0.3-0.2-0.6-0.3-0.8-0.5c-0.2-0.1-0.5-0.3-0.7-0.4
					c-0.3-0.2-0.6-0.3-0.8-0.5c-0.2-0.1-0.5-0.3-0.7-0.5c-0.3-0.2-0.6-0.4-0.8-0.6c-0.2-0.2-0.4-0.3-0.7-0.5
					c-0.3-0.2-0.5-0.4-0.8-0.6c-0.2-0.2-0.4-0.3-0.6-0.5c-0.3-0.2-0.5-0.4-0.8-0.7c-0.2-0.2-0.4-0.3-0.6-0.5
					c-0.3-0.2-0.5-0.5-0.8-0.7c-0.2-0.2-0.3-0.3-0.5-0.5c0,0,0,0,0,0h-11.7h-7.7h-1.1l0,0c-7.4,0-13.4-6.1-13.4-13.7
					c0,3.8-1.5,7.2-3.9,9.7c-0.3,0.3-0.6,0.6-0.9,0.9c-2.3,1.9-5.3,3.1-8.5,3.1l0,0h-1.1h-7.6h-9.6c-7,8-17.1,13.1-28.4,13.1h-122.7
					l-1.5,18.7h0h209.9v230.9l207.4-2.7l-34.9-249.1L1934.4,1623.3C1934.4,1623.3,1934.4,1623.3,1934.4,1623.3z"/>
				<path class="st8" d="M1910.7,1554C1910.7,1554,1910.7,1554,1910.7,1554c0.5-0.4,0.9-0.7,1.4-1.1c0,0,0,0,0,0
					c0.5-0.3,0.9-0.7,1.4-1c0,0,0.1,0,0.1-0.1c0.5-0.3,0.9-0.6,1.4-0.9c0,0,0.1,0,0.1-0.1c0.5-0.3,0.9-0.5,1.4-0.8
					c0.1,0,0.1-0.1,0.2-0.1c0.5-0.2,0.9-0.5,1.4-0.7c0.1,0,0.2-0.1,0.3-0.1c0.5-0.2,0.9-0.4,1.4-0.6c0.1,0,0.2-0.1,0.4-0.1
					c0.4-0.2,0.9-0.4,1.3-0.5c0.2-0.1,0.3-0.1,0.5-0.2c0.4-0.1,0.8-0.3,1.3-0.4c0.2-0.1,0.4-0.1,0.6-0.2c0.4-0.1,0.8-0.2,1.2-0.3
					c0.2-0.1,0.4-0.1,0.7-0.2c0.4-0.1,0.8-0.2,1.1-0.3c0.3-0.1,0.5-0.1,0.8-0.1c0.3-0.1,0.7-0.1,1-0.2c0.3,0,0.6-0.1,1-0.1
					c0.3,0,0.6-0.1,0.9-0.1c0.4,0,0.8-0.1,1.2-0.1c0.2,0,0.5,0,0.7-0.1c0.6,0,1.3,0,1.9,0h55.3l0,0h71.6l-3.3-23.3l-2.7-3.3
					c-45.3,8.7-100.2,16.2-152.4,15.7l5,21.7C1908.8,1555.6,1909.7,1554.8,1910.7,1554z"/>
				<path class="st11" d="M1887.3,1235.7c-10.6-0.1-20.6-3.1-28.3-8.4c-8.5-5.9-13.2-13.9-13.2-22.7c0-3.4,2.8-6.2,6.2-6.2
					s6.2,2.8,6.2,6.2c0,9.9,13.3,18.4,29.1,18.6V1190c-6.3,0-12.6-4.1-12.7-12.3c-0.2-16.9,12.7-33.5,12.7-33.5V1009h-11.5
					c0,0-20.9,17.5-46.2,38.5c4.2,1.4,8.2,3.3,11.6,5.7c8.5,5.9,13.2,13.9,13.2,22.7c0,3.4-2.8,6.2-6.2,6.2s-6.2-2.8-6.2-6.2
					c0-9-10.8-16.7-24.5-18.3c-20.2,16.8-41.4,34.3-56.1,46.3c2.1,105.1,73.9,162.7,101.7,181.1h24.2V1235.7z M1801.6,1184.9
					c-13.5,0-24.4-10.9-24.4-24.4s10.9-24.4,24.4-24.4s24.4,10.9,24.4,24.4S1815,1184.9,1801.6,1184.9z M1814.9,1131.1
					c-12,0-21.7-11.1-21.7-24.9c0-0.5,0-1,0-1.5c-8.2,0.7-11.8-3.6-11.8-3.6c4.7,0.6,8.9-0.3,12.6-1.8c0.2-0.7,0.4-1.4,0.6-2
					c-8.1,0.6-11.6-3.6-11.6-3.6c5.7,0.7,10.7-0.8,14.9-2.9c2.7-3.9,6.4-6.9,10.7-8.4c0,0,0,0,0,0s0,0,0,0c2-0.7,4.1-1.1,6.3-1.1
					c8,0,15.1,5,18.8,12.5c0.6-0.1,1.3-0.2,1.9-0.2c6.9,0,12.5,5.6,12.5,12.5c0,6.9-5.6,12.5-12.5,12.5c-0.7,0-1.3-0.1-1.9-0.2
					C1830,1126.1,1823,1131.1,1814.9,1131.1z"/>
				<path class="st9" d="M1899.7,1178.2c-0.3,7.9-6.3,11.8-12.4,11.8v33.3c0.2,0,0.5,0,0.7,0c16.2,0,29.8-8.5,29.8-18.6
					c0-3.4,2.8-6.2,6.2-6.2c3.4,0,6.2,2.8,6.2,6.2c0,8.7-4.7,16.8-13.2,22.7c-7.8,5.4-18.1,8.4-29,8.4c-0.2,0-0.5,0-0.7,0v49.3h11.9
					c27.5-18.2,98-74.7,101.6-177.7l-51-50c-15.3,0.7-27.8,8.9-27.8,18.6c0,3.4-2.8,6.2-6.2,6.2c-3.4,0-6.2-2.8-6.2-6.2
					c0-8.7,4.7-16.8,13.2-22.7c4.6-3.1,10-5.5,15.8-6.8l-38-37.3h-13.2v135.1C1897.2,1158.1,1900.1,1169.4,1899.7,1178.2z
					 M1984.2,1160.5c0,13.5-10.9,24.4-24.4,24.4s-24.4-10.9-24.4-24.4s10.9-24.4,24.4-24.4S1984.2,1147.1,1984.2,1160.5z
					 M1949.2,1081.4c7.7,0,14.4,4.6,18.3,11.5c3,0.9,6.3,1.3,9.9,0.8c0,0-2.5,2.9-7.9,3.5c0.4,1.1,0.7,2.2,0.9,3.4
					c2.7,0.6,5.5,0.9,8.6,0.5c0,0-2.5,3-8.1,3.6c0,0.5,0,1,0,1.5c0,0.1,0,0.3,0,0.4c2.1,1.6,3.4,4.2,3.4,7c0,4.9-3.9,8.8-8.8,8.9
					c-4,5.2-9.8,8.6-16.4,8.6c-12,0-21.7-11.1-21.7-24.9C1927.5,1092.5,1937.2,1081.4,1949.2,1081.4z"/>
				<path class="st12" d="M1823.2,1106.2c0-6.3,4.6-11.4,10.6-12.4c-3.7-7.5-10.8-12.5-18.8-12.5c-2.2,0-4.3,0.4-6.3,1.1
					c0,0,0,0,0,0s0,0,0,0c-4.3,1.5-8,4.4-10.7,8.4c-4.1,2.1-9.2,3.6-14.9,2.9c0,0,3.6,4.2,11.6,3.6c-0.2,0.7-0.4,1.3-0.6,2
					c-3.7,1.5-8,2.4-12.6,1.8c0,0,3.6,4.3,11.8,3.6c0,0.5,0,1,0,1.5c0,13.7,9.7,24.9,21.7,24.9c8,0,15.1-5,18.8-12.5
					C1827.8,1117.7,1823.2,1112.5,1823.2,1106.2z"/>
				<path class="st5" d="M1823.2,1106.2c0,6.3,4.6,11.4,10.6,12.4c0.6,0.1,1.3,0.2,1.9,0.2c6.9,0,12.5-5.6,12.5-12.5
					c0-6.9-5.6-12.5-12.5-12.5c-0.7,0-1.3,0.1-1.9,0.2C1827.8,1094.8,1823.2,1100,1823.2,1106.2z"/>
				<path class="st12" d="M1949.2,1131.1c6.5,0,12.4-3.3,16.4-8.6c0,0-0.1,0-0.1,0c-4.9,0-8.9-4-8.9-8.9c0-4.9,4-8.9,8.9-8.9
					c2,0,3.9,0.7,5.4,1.9c0-0.1,0-0.3,0-0.4c0-0.5,0-1,0-1.5c5.6-0.6,8.1-3.6,8.1-3.6c-3,0.4-5.9,0.1-8.6-0.5
					c-0.2-1.2-0.5-2.3-0.9-3.4c5.5-0.6,7.9-3.5,7.9-3.5c-3.5,0.5-6.9,0-9.9-0.8c-3.9-6.9-10.6-11.5-18.3-11.5
					c-12,0-21.7,11.1-21.7,24.9C1927.5,1120,1937.2,1131.1,1949.2,1131.1z"/>
				<path class="st5" d="M1956.6,1113.7c0,4.9,4,8.9,8.9,8.9c0,0,0.1,0,0.1,0c4.8-0.1,8.8-4,8.8-8.9c0-2.9-1.4-5.4-3.4-7
					c-1.5-1.2-3.4-1.9-5.4-1.9C1960.6,1104.8,1956.6,1108.8,1956.6,1113.7z"/>
				<path class="st12" d="M1909.5,1075.8c0,3.4,2.8,6.2,6.2,6.2c3.4,0,6.2-2.8,6.2-6.2c0-9.7,12.5-17.9,27.8-18.6l-11.2-10.9
					c-5.9,1.4-11.3,3.7-15.8,6.8C1914.2,1059.1,1909.5,1067.1,1909.5,1075.8z"/>
				<path class="st12" d="M1842,1075.8c0,3.4,2.8,6.2,6.2,6.2s6.2-2.8,6.2-6.2c0-8.7-4.7-16.8-13.2-22.7c-3.4-2.4-7.4-4.3-11.6-5.7
					c-3.9,3.3-8,6.6-12.1,10C1831.3,1059.2,1842,1066.9,1842,1075.8z"/>
				<path class="st12" d="M1917,1227.4c8.5-5.9,13.2-13.9,13.2-22.7c0-3.4-2.8-6.2-6.2-6.2c-3.4,0-6.2,2.8-6.2,6.2
					c0,10.1-13.7,18.6-29.8,18.6c-0.2,0-0.5,0-0.7,0c-15.8-0.2-29.1-8.7-29.1-18.6c0-3.4-2.8-6.2-6.2-6.2s-6.2,2.8-6.2,6.2
					c0,8.7,4.7,16.8,13.2,22.7c7.7,5.3,17.7,8.2,28.3,8.4c0.2,0,0.5,0,0.7,0C1898.9,1235.7,1909.2,1232.8,1917,1227.4z"/>
				<path class="st9" d="M1842.4,1612.4h9.6l-2.5-11.9C1847.8,1604.9,1845.4,1608.9,1842.4,1612.4z"/>
				<polygon class="st9" points="1840.2,1556.4 1840.3,1556.4 1840.3,1556.4 				"/>
				<path class="st4" d="M1847,1588.9l-6.8-32.5c0,0,0,0,0,0h-22.7h-189.8c-2.6,0-4.7-2.2-4.7-4.8s2.1-4.8,4.7-4.8l6.1-0.1
					l30.8-36.7c-23.8-5.5-42-10.5-51.1-13.1l-17.7,22c-15.5,19.3-18.6,45.2-8.2,67.8c0.3,0.7,0.7,1.5,1,2.2H1847z"/>
				<polygon class="st4" points="1697.9,1545.6 1672.7,1545.6 1636.3,1546.7 1759.2,1545.6 				"/>
				<path class="st4" d="M1838.9,1555.2c-0.4-0.4-0.9-0.8-1.4-1.2C1838,1554.4,1838.5,1554.8,1838.9,1555.2z"/>
				<path class="st4" d="M1836.1,1552.9c-0.5-0.3-0.9-0.7-1.4-1C1835.2,1552.2,1835.7,1552.5,1836.1,1552.9z"/>
				<path class="st4" d="M1828.1,1548.4c-0.4-0.2-0.9-0.4-1.3-0.5C1827.2,1548,1827.7,1548.2,1828.1,1548.4z"/>
				<path class="st4" d="M1837.6,1554c-0.5-0.4-0.9-0.7-1.4-1.1C1836.7,1553.3,1837.1,1553.6,1837.6,1554z"/>
				<path class="st4" d="M1826.3,1547.7c-0.4-0.1-0.8-0.3-1.3-0.4C1825.5,1547.4,1825.9,1547.5,1826.3,1547.7z"/>
				<path class="st4" d="M1829.8,1549.1c-0.5-0.2-0.9-0.4-1.4-0.6C1828.9,1548.7,1829.4,1548.9,1829.8,1549.1z"/>
				<path class="st4" d="M1818.7,1545.9c-0.3,0-0.6-0.1-0.9-0.1C1818.1,1545.8,1818.4,1545.9,1818.7,1545.9z"/>
				<path class="st4" d="M1840.2,1556.4c-0.4-0.4-0.9-0.8-1.3-1.2C1839.4,1555.6,1839.8,1556,1840.2,1556.4z"/>
				<path class="st4" d="M1831.5,1550c-0.5-0.2-0.9-0.5-1.4-0.7C1830.6,1549.5,1831,1549.7,1831.5,1550z"/>
				<path class="st4" d="M1834.7,1551.8c-0.5-0.3-0.9-0.6-1.4-0.9C1833.7,1551.2,1834.2,1551.5,1834.7,1551.8z"/>
				<path class="st4" d="M1824.5,1547.1c-0.4-0.1-0.8-0.2-1.2-0.3C1823.7,1546.9,1824.1,1547,1824.5,1547.1z"/>
				<path class="st4" d="M1820.7,1546.2c-0.3-0.1-0.7-0.1-1-0.2C1820,1546.1,1820.4,1546.1,1820.7,1546.2z"/>
				<path class="st4" d="M1833.1,1550.9c-0.5-0.3-0.9-0.5-1.4-0.8C1832.2,1550.3,1832.6,1550.6,1833.1,1550.9z"/>
				<path class="st4" d="M1822.7,1546.6c-0.4-0.1-0.8-0.2-1.1-0.3C1821.9,1546.4,1822.3,1546.5,1822.7,1546.6z"/>
				<path class="st4" d="M1816.7,1545.7c-0.2,0-0.5,0-0.7-0.1C1816.2,1545.6,1816.4,1545.7,1816.7,1545.7z"/>
				<path class="st5" d="M1840.2,1556.4c-0.4-0.4-0.9-0.8-1.3-1.2c0,0,0,0,0,0c-0.4-0.4-0.9-0.8-1.4-1.2c0,0,0,0,0,0
					c-0.5-0.4-0.9-0.7-1.4-1.1c0,0,0,0,0,0c-0.5-0.3-0.9-0.7-1.4-1c0,0-0.1,0-0.1-0.1c-0.5-0.3-0.9-0.6-1.4-0.9c0,0-0.1-0.1-0.1-0.1
					c-0.5-0.3-0.9-0.5-1.4-0.8c-0.1,0-0.1-0.1-0.2-0.1c-0.5-0.2-0.9-0.5-1.4-0.7c-0.1,0-0.2-0.1-0.3-0.1c-0.5-0.2-0.9-0.4-1.4-0.6
					c-0.1,0-0.2-0.1-0.4-0.1c-0.4-0.2-0.9-0.4-1.3-0.5c-0.1-0.1-0.3-0.1-0.4-0.2c-0.4-0.1-0.8-0.3-1.3-0.4c-0.2-0.1-0.4-0.1-0.5-0.2
					c-0.4-0.1-0.8-0.2-1.2-0.3c-0.2-0.1-0.4-0.1-0.7-0.2c-0.4-0.1-0.8-0.2-1.1-0.3c-0.3-0.1-0.5-0.1-0.8-0.1c-0.3-0.1-0.7-0.1-1-0.2
					c-0.3,0-0.6-0.1-0.9-0.1c-0.3,0-0.6-0.1-0.9-0.1c-0.4,0-0.8-0.1-1.2-0.1c-0.2,0-0.5,0-0.7-0.1c-0.6,0-1.3,0-1.9,0h-54.8
					l-122.9,1.1l-2.5,0.1l0-0.1l-6.1,0.1c-2.6,0-4.7,2.2-4.7,4.8s2.1,4.8,4.7,4.8h189.8L1840.2,1556.4L1840.2,1556.4
					C1840.2,1556.4,1840.2,1556.4,1840.2,1556.4z"/>
				<path class="st15" d="M1636.3,1546.7l36.4-1.1l23.1-28.8c-11.2-2.3-21.6-4.5-31.2-6.8l-30.8,36.7l0,0.1L1636.3,1546.7z"/>
				<path class="st15" d="M1814,1625.5c11.3,0,21.4-5.1,28.4-13.1c3-3.5,5.4-7.5,7.1-11.9l-2.4-11.5h-258.4h-1
					c10.4,22.6,32,36.6,56.4,36.6h47.4H1814z"/>
				<path class="st9" d="M1896.2,1612.4h11.7c-0.3-0.3-0.5-0.5-0.8-0.8c-0.2-0.2-0.3-0.3-0.5-0.5c-0.3-0.3-0.5-0.6-0.8-0.9
					c-0.1-0.2-0.3-0.3-0.4-0.5c-0.3-0.3-0.5-0.6-0.8-0.9c-0.1-0.2-0.2-0.3-0.4-0.5c-0.3-0.3-0.5-0.7-0.8-1c-0.1-0.1-0.2-0.3-0.3-0.4
					c-0.3-0.4-0.5-0.7-0.7-1.1c-0.1-0.1-0.2-0.3-0.2-0.4c-0.2-0.4-0.5-0.8-0.7-1.2c-0.1-0.1-0.1-0.2-0.2-0.3
					c-0.2-0.4-0.5-0.9-0.7-1.3c0-0.1-0.1-0.1-0.1-0.2c-0.2-0.5-0.5-1-0.7-1.5c0,0,0,0,0,0c-0.3-0.7-0.6-1.3-0.9-2L1896.2,1612.4z"/>
				<path class="st4" d="M2154.4,1518.9l-15.6-19.2c-12,3.3-30,7.9-51.8,12.7l29,34.3l6.1,0.1c2.6,0,4.7,2.2,4.7,4.8
					s-2.1,4.8-4.7,4.8h-191.3H1908l-6.4,30.3h261.1c-5.6,12-14.3,21.6-25,27.9c10.7-6.3,19.4-15.9,25-27.9
					C2173.1,1564.2,2170,1538.2,2154.4,1518.9z"/>
				<polygon class="st4" points="2061.3,1545.6 1989.7,1545.6 2113.5,1546.7 2076.9,1545.6 2076.9,1545.6 				"/>
				<path class="st4" d="M1934.4,1623.3C1934.4,1623.3,1934.4,1623.3,1934.4,1623.3C1934.4,1623.3,1934.4,1623.3,1934.4,1623.3
					h137.7h33.7c10.7,0,21-2.7,29.9-7.6c-9,4.9-19.2,7.6-29.9,7.6H1934.4z"/>
				<path class="st4" d="M1912.6,1616.3c0.3,0.2,0.5,0.4,0.8,0.6C1913.1,1616.7,1912.9,1616.5,1912.6,1616.3z"/>
				<path class="st4" d="M1920.7,1620.7c0.3,0.1,0.6,0.2,0.9,0.3C1921.2,1620.9,1920.9,1620.8,1920.7,1620.7z"/>
				<path class="st4" d="M1925.1,1546.8c-0.4,0.1-0.8,0.2-1.2,0.3C1924.2,1547,1924.6,1546.9,1925.1,1546.8z"/>
				<path class="st4" d="M1923.3,1547.3c-0.4,0.1-0.9,0.3-1.3,0.4C1922.4,1547.5,1922.9,1547.4,1923.3,1547.3z"/>
				<path class="st4" d="M1919,1620c0.3,0.1,0.6,0.3,0.9,0.4C1919.5,1620.2,1919.2,1620.1,1919,1620z"/>
				<path class="st4" d="M1922.4,1621.3c0.3,0.1,0.6,0.2,0.9,0.3C1923,1621.5,1922.7,1621.4,1922.4,1621.3z"/>
				<path class="st4" d="M1926,1622.3c0.3,0.1,0.6,0.1,0.8,0.2C1926.6,1622.5,1926.3,1622.4,1926,1622.3z"/>
				<path class="st4" d="M1924.2,1621.9c0.3,0.1,0.6,0.2,0.9,0.2C1924.8,1622,1924.5,1622,1924.2,1621.9z"/>
				<path class="st4" d="M1909.7,1614.1c0.3,0.2,0.5,0.5,0.8,0.7C1910.3,1614.5,1910,1614.3,1909.7,1614.1z"/>
				<path class="st4" d="M1927.9,1622.7c0.3,0,0.5,0.1,0.8,0.1C1928.4,1622.8,1928.2,1622.8,1927.9,1622.7z"/>
				<path class="st4" d="M1926.9,1546.4c-0.4,0.1-0.8,0.2-1.1,0.3C1926.1,1546.5,1926.5,1546.4,1926.9,1546.4z"/>
				<path class="st4" d="M1917.3,1619.2c0.3,0.1,0.6,0.3,0.8,0.4C1917.9,1619.5,1917.6,1619.3,1917.3,1619.2z"/>
				<path class="st4" d="M1908.4,1612.9c0.3,0.2,0.5,0.5,0.8,0.7C1908.9,1613.4,1908.6,1613.1,1908.4,1612.9z"/>
				<path class="st4" d="M1915.7,1618.3c0.3,0.2,0.6,0.3,0.8,0.5C1916.2,1618.6,1916,1618.5,1915.7,1618.3z"/>
				<path class="st4" d="M1914.1,1617.4c0.3,0.2,0.6,0.4,0.8,0.5C1914.7,1617.7,1914.4,1617.5,1914.1,1617.4z"/>
				<path class="st4" d="M1911.1,1615.3c0.3,0.2,0.5,0.4,0.8,0.6C1911.7,1615.7,1911.4,1615.5,1911.1,1615.3z"/>
				<path class="st4" d="M1918.2,1549.3c-0.5,0.2-0.9,0.5-1.4,0.7C1917.3,1549.7,1917.7,1549.5,1918.2,1549.3z"/>
				<path class="st4" d="M1908,1556.4L1908,1556.4c0.9-0.8,1.8-1.6,2.7-2.4C1909.7,1554.8,1908.8,1555.6,1908,1556.4z"/>
				<path class="st4" d="M1916.6,1550.1c-0.5,0.3-1,0.5-1.4,0.8C1915.7,1550.6,1916.1,1550.3,1916.6,1550.1z"/>
				<path class="st4" d="M1913.5,1551.9c-0.5,0.3-1,0.7-1.4,1C1912.6,1552.6,1913.1,1552.2,1913.5,1551.9z"/>
				<path class="st4" d="M1915.1,1550.9c-0.5,0.3-1,0.6-1.4,0.9C1914.1,1551.5,1914.6,1551.2,1915.1,1550.9z"/>
				<path class="st4" d="M1919.9,1548.5c-0.5,0.2-0.9,0.4-1.4,0.6C1918.9,1548.9,1919.4,1548.7,1919.9,1548.5z"/>
				<path class="st4" d="M1929.8,1623c0.3,0,0.5,0.1,0.8,0.1C1930.3,1623.1,1930.1,1623,1929.8,1623z"/>
				<path class="st4" d="M1928.7,1546c-0.3,0.1-0.7,0.1-1,0.2C1928,1546.1,1928.4,1546.1,1928.7,1546z"/>
				<path class="st4" d="M1931.8,1623.2c0.2,0,0.4,0,0.7,0C1932.3,1623.2,1932.1,1623.2,1931.8,1623.2z"/>
				<path class="st4" d="M1921.6,1547.9c-0.4,0.2-0.9,0.3-1.3,0.5C1920.7,1548.2,1921.1,1548,1921.6,1547.9z"/>
				<path class="st4" d="M1932.5,1545.6c-0.2,0-0.5,0-0.7,0.1C1932,1545.7,1932.3,1545.6,1932.5,1545.6z"/>
				<path class="st4" d="M1930.6,1545.8c-0.3,0-0.6,0.1-0.9,0.1C1930,1545.9,1930.3,1545.8,1930.6,1545.8z"/>
				<path class="st4" d="M1912.1,1552.9c-0.5,0.3-0.9,0.7-1.4,1.1C1911.1,1553.6,1911.6,1553.3,1912.1,1552.9z"/>
				<path class="st4" d="M1901.6,1604.3c0.2,0.4,0.5,0.8,0.7,1.2C1902,1605.1,1901.8,1604.7,1901.6,1604.3z"/>
				<path class="st4" d="M1902.5,1605.9c0.2,0.4,0.5,0.7,0.7,1.1C1903,1606.6,1902.8,1606.2,1902.5,1605.9z"/>
				<path class="st4" d="M1900.7,1602.7c0.2,0.4,0.5,0.9,0.7,1.3C1901.1,1603.6,1900.9,1603.1,1900.7,1602.7z"/>
				<path class="st4" d="M1899.9,1601.1c0.2,0.5,0.5,1,0.7,1.5C1900.3,1602,1900.1,1601.5,1899.9,1601.1z"/>
				<path class="st4" d="M1904.7,1608.8c0.2,0.3,0.5,0.6,0.8,0.9C1905.2,1609.5,1904.9,1609.2,1904.7,1608.8z"/>
				<path class="st4" d="M1903.6,1607.4c0.2,0.3,0.5,0.7,0.8,1C1904.1,1608.1,1903.8,1607.7,1903.6,1607.4z"/>
				<path class="st4" d="M1907.9,1612.4C1907.9,1612.4,1907.9,1612.4,1907.9,1612.4c-0.3-0.3-0.5-0.5-0.8-0.8
					C1907.3,1611.9,1907.6,1612.1,1907.9,1612.4z"/>
				<path class="st4" d="M1899.9,1601.1c-0.3-0.7-0.6-1.3-0.9-2l0,0C1899.3,1599.7,1899.5,1600.4,1899.9,1601.1z"/>
				<path class="st4" d="M1905.8,1610.2c0.3,0.3,0.5,0.6,0.8,0.9C1906.4,1610.8,1906.1,1610.5,1905.8,1610.2z"/>
				<path class="st5" d="M2113.5,1546.7l-123.8-1.1l0,0h-55.3c-0.7,0-1.3,0-1.9,0c-0.2,0-0.5,0-0.7,0.1c-0.4,0-0.8,0.1-1.2,0.1
					c-0.3,0-0.6,0.1-0.9,0.1c-0.3,0-0.6,0.1-1,0.1c-0.3,0.1-0.7,0.1-1,0.2c-0.3,0-0.5,0.1-0.8,0.1c-0.4,0.1-0.8,0.2-1.1,0.3
					c-0.2,0.1-0.5,0.1-0.7,0.2c-0.4,0.1-0.8,0.2-1.2,0.3c-0.2,0.1-0.4,0.1-0.6,0.2c-0.4,0.1-0.9,0.3-1.3,0.4
					c-0.2,0.1-0.3,0.1-0.5,0.2c-0.4,0.2-0.9,0.3-1.3,0.5c-0.1,0-0.2,0.1-0.4,0.1c-0.5,0.2-0.9,0.4-1.4,0.6c-0.1,0-0.2,0.1-0.3,0.1
					c-0.5,0.2-0.9,0.5-1.4,0.7c-0.1,0-0.1,0.1-0.2,0.1c-0.5,0.3-1,0.5-1.4,0.8c0,0-0.1,0-0.1,0.1c-0.5,0.3-1,0.6-1.4,0.9
					c0,0-0.1,0-0.1,0.1c-0.5,0.3-1,0.7-1.4,1c0,0,0,0,0,0c-0.5,0.3-0.9,0.7-1.4,1.1c0,0,0,0,0,0c-0.9,0.8-1.8,1.5-2.7,2.4h22.9
					h191.3c2.6,0,4.7-2.2,4.7-4.8s-2.1-4.8-4.7-4.8l-6.1-0.1l0,0.1L2113.5,1546.7z"/>
				<path class="st15" d="M2055.3,1519l2.7,3.3l18.9,23.3l0,0l36.7,1.1l2.6,0.1l0-0.1l-29-34.3
					C2077.2,1514.6,2066.6,1516.8,2055.3,1519z"/>
				<path class="st15" d="M2162.7,1586.7h-261.1l-2.6,12.3c0.3,0.7,0.6,1.3,0.9,2c0,0,0,0,0,0c0.2,0.5,0.5,1,0.7,1.5
					c0,0.1,0.1,0.1,0.1,0.2c0.2,0.4,0.5,0.9,0.7,1.3c0.1,0.1,0.1,0.2,0.2,0.3c0.2,0.4,0.5,0.8,0.7,1.2c0.1,0.1,0.2,0.3,0.2,0.4
					c0.2,0.4,0.5,0.7,0.7,1.1c0.1,0.1,0.2,0.3,0.3,0.4c0.2,0.3,0.5,0.7,0.8,1c0.1,0.2,0.2,0.3,0.4,0.5c0.2,0.3,0.5,0.6,0.8,0.9
					c0.1,0.2,0.3,0.3,0.4,0.5c0.3,0.3,0.5,0.6,0.8,0.9c0.2,0.2,0.3,0.3,0.5,0.5c0.3,0.3,0.5,0.5,0.8,0.8c0.2,0.2,0.3,0.3,0.5,0.5
					c0.3,0.2,0.5,0.5,0.8,0.7c0.2,0.2,0.4,0.3,0.6,0.5c0.3,0.2,0.5,0.5,0.8,0.7c0.2,0.2,0.4,0.3,0.6,0.5c0.3,0.2,0.5,0.4,0.8,0.6
					c0.2,0.2,0.4,0.3,0.7,0.5c0.3,0.2,0.5,0.4,0.8,0.6c0.2,0.2,0.5,0.3,0.7,0.5c0.3,0.2,0.6,0.4,0.8,0.5c0.2,0.1,0.5,0.3,0.7,0.4
					c0.3,0.2,0.6,0.3,0.8,0.5c0.3,0.1,0.5,0.3,0.8,0.4c0.3,0.1,0.6,0.3,0.8,0.4c0.3,0.1,0.5,0.3,0.8,0.4c0.3,0.1,0.6,0.3,0.9,0.4
					c0.3,0.1,0.6,0.2,0.9,0.3c0.3,0.1,0.6,0.2,0.9,0.3c0.3,0.1,0.6,0.2,0.9,0.3c0.3,0.1,0.6,0.2,0.9,0.3c0.3,0.1,0.6,0.2,0.9,0.3
					c0.3,0.1,0.6,0.2,0.9,0.2c0.3,0.1,0.6,0.2,1,0.2c0.3,0.1,0.6,0.1,0.8,0.2c0.3,0.1,0.7,0.1,1,0.2c0.3,0,0.5,0.1,0.8,0.1
					c0.4,0.1,0.7,0.1,1.1,0.1c0.3,0,0.5,0.1,0.8,0.1c0.4,0,0.8,0.1,1.2,0.1c0.2,0,0.4,0,0.7,0c0.6,0,1.2,0,1.9,0c0,0,0,0,0.1,0
					h171.4c10.7,0,21-2.7,29.9-7.6c0.6-0.4,1.3-0.7,1.9-1.1C2148.3,1608.3,2157.1,1598.7,2162.7,1586.7z"/>
				<path class="st21" d="M1886,1009h14.5l100.3,98.3v0c-3.6,103-74.1,159.5-101.6,177.7h-11.9h-24.2c6.7,4.4,10.9,6.6,10.9,6.6
					v164.8c0,0,0,0,0,0c0.4,0,0.7,0,1.1,0c0.1,0,0.2,0,0.4,0c0.2,0,0.4,0.1,0.6,0.1c0.2,0,0.3,0.1,0.5,0.1c0.2,0,0.3,0.1,0.5,0.1
					c0.2,0,0.4,0.1,0.5,0.1c0.1,0,0.2,0.1,0.2,0.1c0.8,0.2,1.5,0.5,2.2,0.9c0,0,0.1,0,0.1,0c3.5,1.8,6.1,5,7,9.1l15.8,67.8
					c52.2,0.5,107.1-7.1,152.4-15.7c11.2-2.2,21.9-4.4,31.7-6.5c21.8-4.8,39.7-9.4,51.8-12.7c10.6-2.9,16.6-4.7,16.6-4.7l-99.5-166
					c-6.7-11.2-9.7-24.3-8.6-37.4l18.4-209.8c1.1-12-1-24.1-6.1-35.1l-40-87.4l-0.6,4.2v-3.9l-122.9-85H1886v0V1009z"/>
				<path class="st22" d="M1695.8,1516.8c1.5,0.3,2.9,0.6,4.4,0.9c42.5,8.4,94.6,16.1,145,17l15.7-67.7c0.9-4,3.6-7.3,7-9.1
					c0,0,0.1,0,0.1,0c0.7-0.4,1.4-0.7,2.2-0.9c0.1,0,0.2-0.1,0.2-0.1c0.2,0,0.4-0.1,0.5-0.1c0.2,0,0.3-0.1,0.5-0.1
					c0.2,0,0.3-0.1,0.5-0.1c0.2,0,0.4-0.1,0.6-0.1c0.1,0,0.2,0,0.4,0c0.3,0,0.7,0,1,0h0l0,0v-164.8c0,0-4.2-2.2-10.9-6.6
					c-27.8-18.4-99.6-75.9-101.7-181.1c14.7-12,35.9-29.6,56.1-46.3c4.1-3.4,8.1-6.8,12.1-10c25.3-21,46.2-38.5,46.2-38.5h11.5h13.2
					l38,37.3l11.2,10.9l51,50v0l-100.3-98.3H1886V874.5h-12l-131.3,84.8l-40,87.4c-5,11-7.1,23.1-6.1,35.1l18.4,209.8
					c1.1,13-1.9,26.1-8.6,37.4l-99.5,166c0,0,2.3,0.7,6.6,1.9c9.2,2.6,27.3,7.6,51.1,13.1
					C1674.2,1512.3,1684.7,1514.5,1695.8,1516.8z"/>
				<path class="st11" d="M1847.7,1591.9h1.6c9.9,0,17.9-8.2,17.9-18.3v-115.3c0.2-0.1,0.5-0.3,0.7-0.4c-3.4,1.8-6,5-7,9.1
					l-15.7,67.7l-5,21.7v0l6.8,32.5l2.4,11.5l2.5,11.9L1847.7,1591.9z"/>
				<path class="st11" d="M1872.6,1456.5c0.1,0,0.2,0,0.4,0C1872.8,1456.4,1872.7,1456.5,1872.6,1456.5z"/>
				<path class="st11" d="M1870.4,1456.9c0.2,0,0.4-0.1,0.5-0.1C1870.8,1456.8,1870.6,1456.8,1870.4,1456.9z"/>
				<path class="st11" d="M1871.5,1456.6c0.2,0,0.3-0.1,0.5-0.1C1871.8,1456.6,1871.6,1456.6,1871.5,1456.6z"/>
				<path class="st11" d="M1868,1457.9c0.7-0.4,1.4-0.7,2.2-0.9C1869.4,1457.2,1868.7,1457.5,1868,1457.9z"/>
				<path class="st11" d="M1902.9,1534.7l-15.8-67.8c-0.9-4-3.6-7.3-7-9.1c0.3,0.1,0.5,0.3,0.7,0.4v115.3c0,10.1,8.1,18.3,18,18.3
					h1.6l-4.3,20.5l2.8-13.3l0,0l2.6-12.3l6.4-30.3l0,0L1902.9,1534.7z"/>
				<path class="st11" d="M1876.1,1456.6c0.2,0,0.3,0.1,0.5,0.1C1876.4,1456.6,1876.2,1456.6,1876.1,1456.6z"/>
				<path class="st11" d="M1875,1456.4c0.1,0,0.2,0,0.4,0C1875.3,1456.5,1875.2,1456.4,1875,1456.4z"/>
				<polygon class="st11" points="1874,1456.4 1874,1456.4 1874,1456.4 				"/>
				<path class="st11" d="M1877.8,1457c0.8,0.2,1.5,0.5,2.2,0.9C1879.3,1457.5,1878.6,1457.2,1877.8,1457z"/>
				<path class="st11" d="M1877,1456.8c0.2,0,0.4,0.1,0.5,0.1C1877.4,1456.8,1877.2,1456.8,1877,1456.8z"/>
				<path class="st9" d="M1900.5,1591.9h-1.6c-10,0-18-8.2-18-18.3v-115.3c-0.2-0.1-0.5-0.3-0.7-0.4c0,0-0.1,0-0.1,0
					c-0.7-0.4-1.5-0.7-2.2-0.9c-0.1,0-0.2-0.1-0.2-0.1c-0.2,0-0.4-0.1-0.5-0.1c-0.2,0-0.3-0.1-0.5-0.1c-0.2,0-0.3-0.1-0.5-0.1
					c-0.2,0-0.4-0.1-0.6-0.1c-0.1,0-0.2,0-0.4,0c-0.3,0-0.7,0-1.1,0c0,0,0,0,0,0h0c-0.4,0-0.7,0-1,0c-0.1,0-0.2,0-0.4,0
					c-0.2,0-0.4,0.1-0.6,0.1c-0.2,0-0.3,0.1-0.5,0.1c-0.2,0-0.3,0.1-0.5,0.1c-0.2,0-0.4,0.1-0.5,0.1c-0.1,0-0.2,0.1-0.2,0.1
					c-0.8,0.2-1.5,0.5-2.2,0.9c0,0-0.1,0-0.1,0c-0.3,0.1-0.5,0.3-0.7,0.4v115.3c0,10.1-8,18.3-17.9,18.3h-1.6l4.3,20.5h7.6h1.1l0,0
					c3.2,0,6.2-1.2,8.5-3.1c0.3-0.3,0.6-0.6,0.9-0.9c2.4-2.5,3.9-5.9,3.9-9.7c0,7.5,6,13.7,13.4,13.7l0,0h1.1h7.7L1900.5,1591.9z"/>
				<path class="st13" d="M1899.7,1178.2c0.4-8.8-2.5-20.1-12.4-34c0,0-12.9,16.6-12.7,33.5c0.1,8.2,6.4,12.4,12.7,12.3
					C1893.3,1189.9,1899.3,1186.1,1899.7,1178.2z"/>
				<circle class="st13" cx="1959.8" cy="1160.5" r="24.4"/>
				<circle class="st13" cx="1801.6" cy="1160.5" r="24.4"/>
			</g>
		</g>
	</g>
	<g class="st2">
		<g>
			<path class="st5" d="M1815.9,56.3H456.1c-121.3,0-219.6,98.3-219.6,219.6v0c0,121.3,98.3,219.6,219.6,219.6h66.5l9.7,75
				c3.3,25.4,37.8,30.7,48.5,7.5l38.3-82.5h469.6l23.2,70.1c8.1,24.3,42.9,23,49.1-1.9l16.9-68.2h550.4l38.3,82.5
				c10.8,23.2,45.3,17.9,48.5-7.5l9.7-75.2c117.2-4.7,210.7-101.1,210.7-219.4v0C2035.5,154.7,1937.2,56.3,1815.9,56.3z"/>
		</g>
		<path class="st23" d="M965,337.3c-7.9,4.2-15.4,8-23.2,10.9c-30.1,11.1-65-3.6-80.3-31.4c-5-9.1,31.8-50.7,67.3-30.9
			c0.7,0.4,1.3,0.7,2,1c8.2,3.5,13.8-8.8,5.8-12.8c-12.3-6.2-25.1-8.8-38.7-9.9c-20.1-1.7-33.7,7.5-43.1,24.2
			c-15.2,26.7-9.7,55.4,14,74.9c3.2,2.7,6.6,5.2,10.4,8.3c-21.1,6.9-35,0.7-41.5-18.8c-3.2-9.6-4.7-20-5.7-30.1
			c-5.2-50-9.3-100.1-15.2-150.1c-1.9-16.7-7.2-33-11.2-49.5c-0.4-1.8-2.1-2.9-3.9-2.6c-1.5,0.2-2.7,1.4-2.9,2.8
			c-1.6,9.7-4.6,19.5-3.7,29c3.1,31.1,9,61.8,12.1,92.9c2.7,27.1,5.2,54.5,3.7,81.5c-1.2,20.9-11.4,39.6-33.8,47
			c-16.4,5.4-25,0.8-30.3-15.4c-2-6.1-3.1-12.5-4.8-19.8c-8.5,7.5-15.4,14.4-23.2,20.2c-33.3,24.8-57.4,17.6-69.2-22.4
			c-7.4-25.2-12.3-51.2-16.3-77.2c-1.1-7.3,3.1-17.9,8.6-23.2c25.1-24.5,51.3-47.8,77.6-71.1c5.5-4.9,12.8-7.7,21.9-12.9
			c-2.5,21.8-4.6,40.4-6.7,58.9c-0.2,1.7,1,3.3,2.8,3.5l0,0c1.7,0.2,3.3-1,3.5-2.7c3-19.4,6.6-38.8,8.3-58.3
			c0.6-6.8-2.5-17.4-7.4-20.3c-4.6-2.7-15.1,0.7-20.9,4.6c-35.4,24-65.9,53.5-92.7,86.7c-8.4,10.3-11.8,21.6-8.7,35.4
			c3.9,17.7,7.5,36.5-17.5,43.3c-2.9,0.8-4.8,4.9-7.7,6.6c-6,3.6-12.4,6.7-18.5,10.1c-6.8,3.8-13.6,7.9-22.8,13.2
			c8,2.9,11.3,4.2,11.6,4.3c-14.3,8.4-30,16.5-44.5,26.5c-14.8,10.3-27.8,23.1-42.4,33.6c-12.6,9-24.7,2.5-24.3-13.2
			c0.2-9.5,3.4-19,5.5-28.4c1-4.4,2.8-8.7,4.2-13c-2.2-0.9-4.7,0-5.7,2.1c-5.6,11.2-15.2,32.1-12.1,52.6c14,25,28.4,27.5,52,8.9
			c15.3-12.1,30-25.1,45.7-36.6c15.4-11.3,32.8-14.2,51.5-8.8c4.5,1.3,9.1,2,12.9,2.8c8.7-18,1.3-28.8-15.7-35.5
			c10.8-15.4,24.3-8.8,35.4-10.1c5.7,19.7,9.6,38.4,16.5,56c12.1,31.1,35.9,37.5,63,18c7.6-5.5,14.4-12.1,21.8-18.4
			c8.6,26.2,17.6,32.1,41.7,29.6c14.4-1.5,24.6-8.9,32.1-20.5c5.4-8.3,9.8-17.2,15.6-27.6c2.3,8.9,3.6,15.9,6,22.6
			c5.4,15.1,17.7,25.2,31.7,23.5c44.5-5.4,85.3-20.6,118.7-51.6c0.1-0.1,0.1-0.1,0.2-0.2C981,343.6,973.1,332.9,965,337.3z"/>
		<path class="st23" d="M1679.6,148.3c4.5,3.1,7.4,5.1,13.7,9.4c-9-20.6-16.4-37.7-24.2-55.7c-2,2.3-3,3.3-3.9,4.4
			c-12.1,16.3-2.9,32.7-0.5,49.2c9.9,65.6,19.7,131.2,29.8,196.8c2.4,15.5-6.2,27.7-22.7,30.5c-16.8,2.9-28.9-6-30.8-22.8
			c-0.7-5.9-0.9-11.8-1.3-17.8c-7,7.4-10.1,15.8-15.6,22.3c-4.6,5.4-12,11.5-18,11.4c-4.2-0.1-8.7-9.9-12.1-15.9
			c-2.2-3.9-2.6-8.8-4.4-15.9c-4.7,5.3-7.5,9-10.8,12.2c-6.6,6.5-12.7,13.6-20.2,19c-17.6,12.6-26.5,8.3-28.8-13
			c-0.4-4.1-1.1-8.2-1.8-13.1c-3.1,1.1-5,1.5-6.6,2.4c-58.4,36.7-123.3,44.2-190.1,40.4c-41.6-2.3-55.3-16.9-59.7-59.1
			c-6.3-61.7-11.8-123.4-18.3-185c-1.5-13.9-6-27.4-9.2-41.1c-2,0.3-4,0.5-6,0.8c-0.7,10-2.9,20.2-2,30.1
			c5.1,57.9,11,115.7,16.5,173.5c0.8,8.4,0.8,16.8,1.2,25c-44.2-42.2-87.5-83.4-132.5-126.4c6.6,0.9,10.6,1.5,14.6,2.1
			c0.5-1.1,1.1-2.3,1.6-3.4c-15.3-10.6-30.6-21.3-48-33.4c1.6,18.9,6.4,32.4,18,43.5c27.2,26,54.6,51.7,80.6,78.8
			c17.7,18.5,33.6,38.9,49.3,59.2c7.7,9.9,6.1,20.2-2.8,30.4c-17.8,20.4-40,34-64.2,45c-4.9,2.2-9.7,4.7-17.8,8.7
			c49.4,4.6,86.2-22.2,109-75.8c12.3,40.2,26,51.3,68.1,52.4c63,1.7,124.8-2.5,179.1-40.7c7.4,41.6,33.5,44.1,66.7,6.5
			c13.7,23.7,28.6,30.2,52.9-2.7c5.3,18,17.2,26.7,35.6,26.6c19.2-0.1,29.1-12.3,35.4-28c3.4-8.4,6.5-17.8,6.3-26.7
			c-0.3-18-2.3-36-4.7-53.8C1694.4,249,1687,199.5,1679.6,148.3z"/>
		<path class="st23" d="M1732.5,155.6c4.3,2.9,6.7,4.6,11.9,8.2c-8.5-22.2-15.8-40.9-23-59.7c-1.4,0.1-2.9,0.3-4.3,0.4
			c-1.7,9.9-6,20.2-4.7,29.7c9,67.6,19.6,135,28.6,202.6c3.7,27.7,4.9,55.7,7.2,83.6c1.4-0.1,2.8-0.1,4.1-0.2
			C1765.1,331.4,1739.7,244.7,1732.5,155.6z"/>
		<circle class="st23" cx="678.3" cy="442.5" r="14.6"/>
		<circle class="st23" cx="716.6" cy="442.5" r="14.6"/>
		<path class="st23" d="M1167.7,327.9c5.9-19.6,0.7-28.6-23.1-44c-13.2-8.5-23.8-5.5-28.1,9.7c-2.9,10-2.6,20.9-3.5,29.7
			c-27.8,18.3-55.2,36.8-83.1,54.3c-5.8,3.6-17.9,6.8-20.1,4.2c-5.3-6.2-10.1-16.7-8.6-24.2c3.1-14.9,10.4-28.9,16.1-43.3
			c1.7-4.2,3.7-8.4,5.5-12.5c-25.4,24-36.8,52.7-29.1,86.9c4.6,20.2,24.2,28.4,42,17.6c8.3-5,15.6-11.6,23.1-17.8
			c20.3-16.9,42.2-30.7,67.8-39.3c2.2,5.1,3.9,8.8,7.3,16.5c0.3-19,10.2-23.5,23.2-26.2C1161.3,338.5,1166.3,332.5,1167.7,327.9z
			 M1130.9,318.3v-9.9c0-4.5,5-7.3,8.8-4.9l19,11.7L1130.9,318.3z"/>
		<circle class="st18" cx="678.3" cy="428.5" r="14.6"/>
		<g>
			<path class="st22" d="M965,323.3c-7.9,4.2-15.4,8-23.2,10.9c-30.1,11.1-65-3.6-80.3-31.4c-5-9.1,31.8-50.7,67.3-30.9
				c0.7,0.4,1.3,0.7,2,1c8.2,3.5,13.8-8.8,5.8-12.8c-12.3-6.2-25.1-8.8-38.7-9.9c-20.1-1.7-33.7,7.5-43.1,24.2
				c-15.2,26.7-9.7,55.4,14,74.9c3.2,2.7,6.6,5.2,10.4,8.3c-21.1,6.9-35,0.7-41.5-18.8c-3.2-9.6-4.7-20-5.7-30.1
				c-5.2-50-9.3-100.1-15.2-150.1c-1.9-16.7-7.2-33-11.2-49.5c-0.4-1.8-2.1-2.9-3.9-2.6c-1.5,0.2-2.7,1.4-2.9,2.8
				c-1.6,9.7-4.6,19.5-3.7,29c3.1,31.1,9,61.8,12.1,92.9c2.7,27.1,5.2,54.5,3.7,81.5c-1.2,20.9-11.4,39.6-33.8,47
				c-16.4,5.4-25,0.8-30.3-15.4c-2-6.1-3.1-12.5-4.8-19.8c-8.5,7.5-15.4,14.4-23.2,20.2c-33.3,24.8-57.4,17.6-69.2-22.4
				c-7.4-25.2-12.3-51.2-16.3-77.2c-1.1-7.3,3.1-17.9,8.6-23.2c25.1-24.5,51.3-47.8,77.6-71.1c5.5-4.9,12.8-7.7,21.9-12.9
				c-2.5,21.8-4.6,40.4-6.7,58.9c-0.2,1.7,1,3.3,2.8,3.5l0,0c1.7,0.2,3.3-1,3.5-2.7c3-19.4,6.6-38.8,8.3-58.3
				c0.6-6.8-2.5-17.4-7.4-20.3c-4.6-2.7-15.1,0.7-20.9,4.6c-35.4,24-65.9,53.5-92.7,86.7c-8.4,10.3-11.8,21.6-8.7,35.4
				c3.9,17.7,7.5,36.5-17.5,43.3c-2.9,0.8-4.8,4.9-7.7,6.6c-6,3.6-12.4,6.7-18.5,10.1c-6.8,3.8-13.6,7.9-22.8,13.2
				c8,2.9,11.3,4.2,11.6,4.3c-14.3,8.4-30,16.5-44.5,26.5c-14.8,10.3-27.8,23.1-42.4,33.6c-12.6,9-24.7,2.5-24.3-13.2
				c0.2-9.5,3.4-19,5.5-28.4c1-4.4,2.8-8.7,4.2-13c-2.2-0.9-4.7,0-5.7,2.1c-5.6,11.2-15.2,32.1-12.1,52.6c14,25,28.4,27.5,52,8.9
				c15.3-12.1,30-25.1,45.7-36.6c15.4-11.3,32.8-14.2,51.5-8.8c4.5,1.3,9.1,2,12.9,2.8c8.7-18,1.3-28.8-15.7-35.5
				c10.8-15.4,24.3-8.8,35.4-10.1c5.7,19.7,9.6,38.4,16.5,56c12.1,31.1,35.9,37.5,63,18c7.6-5.5,14.4-12.1,21.8-18.4
				c8.6,26.2,17.6,32.1,41.7,29.6c14.4-1.5,24.6-8.9,32.1-20.5c5.4-8.3,9.8-17.2,15.6-27.6c2.3,8.9,3.6,15.9,6,22.6
				c5.4,15.1,17.7,25.2,31.7,23.5c44.5-5.4,85.3-20.6,118.7-51.6c0.1-0.1,0.1-0.1,0.2-0.2C981,329.6,973.1,318.9,965,323.3z"/>
			<path class="st22" d="M1679.6,134.3c4.5,3.1,7.4,5.1,13.7,9.4c-9-20.6-16.4-37.7-24.2-55.7c-2,2.3-3,3.3-3.9,4.4
				c-12.1,16.3-2.9,32.7-0.5,49.2c9.9,65.6,19.7,131.2,29.8,196.8c2.4,15.5-6.2,27.7-22.7,30.5c-16.8,2.9-28.9-6-30.8-22.8
				c-0.7-5.9-0.9-11.8-1.3-17.8c-7,7.4-10.1,15.8-15.6,22.3c-4.6,5.4-12,11.5-18,11.4c-4.2-0.1-8.7-9.9-12.1-15.9
				c-2.2-3.9-2.6-8.8-4.4-15.9c-4.7,5.3-7.5,9-10.8,12.2c-6.6,6.5-12.7,13.6-20.2,19c-17.6,12.6-26.5,8.3-28.8-13
				c-0.4-4.1-1.1-8.2-1.8-13.1c-3.1,1.1-5,1.5-6.6,2.4c-58.4,36.7-123.3,44.2-190.1,40.4c-41.6-2.3-55.3-16.9-59.7-59.1
				c-6.3-61.7-11.8-123.4-18.3-185c-1.5-13.9-6-27.4-9.2-41.1c-2,0.3-4,0.5-6,0.8c-0.7,10-2.9,20.2-2,30.1
				c5.1,57.9,11,115.7,16.5,173.5c0.8,8.4,0.8,16.8,1.2,25c-44.2-42.2-87.5-83.4-132.5-126.4c6.6,0.9,10.6,1.5,14.6,2.1
				c0.5-1.1,1.1-2.3,1.6-3.4c-15.3-10.6-30.6-21.3-48-33.4c1.6,18.9,6.4,32.4,18,43.5c27.2,26,54.6,51.7,80.6,78.8
				c17.7,18.5,33.6,38.9,49.3,59.2c7.7,9.9,6.1,20.2-2.8,30.4c-17.8,20.4-40,34-64.2,45c-4.9,2.2-9.7,4.7-17.8,8.7
				c49.4,4.6,86.2-22.2,109-75.8c12.3,40.2,26,51.3,68.1,52.4c63,1.7,124.8-2.5,179.1-40.7c7.4,41.6,33.5,44.1,66.7,6.5
				c13.7,23.7,28.6,30.2,52.9-2.7c5.3,18,17.2,26.7,35.6,26.6c19.2-0.1,29.1-12.3,35.4-28c3.4-8.4,6.5-17.8,6.3-26.7
				c-0.3-18-2.3-36-4.7-53.8C1694.4,235,1687,185.5,1679.6,134.3z"/>
			<path class="st22" d="M1732.5,141.6c4.3,2.9,6.7,4.6,11.9,8.2c-8.5-22.2-15.8-40.9-23-59.7c-1.4,0.1-2.9,0.3-4.3,0.4
				c-1.7,9.9-6,20.2-4.7,29.7c9,67.6,19.6,135,28.6,202.6c3.7,27.7,4.9,55.7,7.2,83.6c1.4-0.1,2.8-0.1,4.1-0.2
				C1765.1,317.4,1739.7,230.7,1732.5,141.6z"/>
			<circle class="st22" cx="716.6" cy="428.5" r="14.6"/>
			<path class="st22" d="M1167.7,313.9c5.9-19.6,0.7-28.6-23.1-44c-13.2-8.5-23.8-5.5-28.1,9.7c-2.9,10-2.6,20.9-3.5,29.7
				c-27.8,18.3-55.2,36.8-83.1,54.3c-5.8,3.6-17.9,6.8-20.1,4.2c-5.3-6.2-10.1-16.7-8.6-24.2c3.1-14.9,10.4-28.9,16.1-43.3
				c1.7-4.2,3.7-8.4,5.5-12.5c-25.4,24-36.8,52.7-29.1,86.9c4.6,20.2,24.2,28.4,42,17.6c8.3-5,15.6-11.6,23.1-17.8
				c20.3-16.9,42.2-30.7,67.8-39.3c2.2,5.1,3.9,8.8,7.3,16.5c0.3-19,10.2-23.5,23.2-26.2C1161.3,324.5,1166.3,318.5,1167.7,313.9z
				 M1130.9,304.3v-9.9c0-4.5,5-7.3,8.8-4.9l19,11.7L1130.9,304.3z"/>
		</g>
	</g>
</g>
</svg>
